<svg fill="black" width="55" height="55" viewBox="0 0 55 55" xmlns="http://www.w3.org/2000/svg">
<g clip-path="url(#clip0_756_3416)">
<path d="M29.7913 16.0416H25.208V25.2083H16.0413V29.7916H25.208V38.9583H29.7913V29.7916H38.958V25.2083H29.7913V16.0416ZM27.4997 4.58325C14.8497 4.58325 4.58301 14.8499 4.58301 27.4999C4.58301 40.1499 14.8497 50.4166 27.4997 50.4166C40.1497 50.4166 50.4163 40.1499 50.4163 27.4999C50.4163 14.8499 40.1497 4.58325 27.4997 4.58325ZM27.4997 45.8333C17.3934 45.8333 9.16634 37.6062 9.16634 27.4999C9.16634 17.3937 17.3934 9.16659 27.4997 9.16659C37.6059 9.16659 45.833 17.3937 45.833 27.4999C45.833 37.6062 37.6059 45.8333 27.4997 45.8333Z" />
</g>
<defs>
<clipPath id="clip0_756_3416">
<rect width="55" height="55" fill="white"/>
</clipPath>
</defs>
</svg>
