<svg xmlns="http://www.w3.org/2000/svg" width="47" height="47" fill="none">
    <path fill="#C2C2C2" d="M25.792 12.042h-4.584v9.166h-9.166v4.584h9.167v9.166h4.583v-9.166h9.166v-4.584h-9.166v-9.166ZM23.5.583C10.85.583.583 10.85.583 23.5c0 12.65 10.267 22.917 22.917 22.917 12.65 0 22.917-10.267 22.917-22.917C46.417 10.85 36.15.583 23.5.583Zm0 41.25c-10.106 0-18.333-8.227-18.333-18.333 0-10.106 8.227-18.333 18.333-18.333 10.106 0 18.334 8.227 18.334 18.333 0 10.106-8.228 18.333-18.334 18.333Z"/>
</svg>
