<svg width="328" height="50" viewBox="0 0 328 50" fill="none" xmlns="http://www.w3.org/2000/svg">
<path d="M13.8296 44.3116C12.7562 46.8717 10.2512 48.5377 7.47516 48.5377V48.5377C2.5218 48.5377 -0.813387 43.4673 1.14812 38.9189L13.8205 9.53357C16.1289 4.18081 21.3997 0.713787 27.229 0.713787V0.713787C33.0516 0.713787 38.3178 4.17297 40.6302 9.51671L53.2653 38.7145C55.2742 43.3567 51.8709 48.5377 46.8127 48.5377V48.5377C43.9624 48.5377 41.3801 46.7829 40.2962 44.1467V44.1467C39.1951 41.4691 36.5723 39.6867 33.6772 39.6867H20.5673C17.6603 39.6867 15.0372 41.4313 13.9132 44.1122L13.8296 44.3116ZM23.6186 20.914L23.2689 21.757C22.1104 24.55 24.163 27.6237 27.1868 27.6237V27.6237C30.2105 27.6237 32.2632 24.55 31.1046 21.757L30.7549 20.914L28.2026 13.4741C28.0741 13.0997 27.722 12.8482 27.3261 12.8482V12.8482C26.9415 12.8482 26.5968 13.0858 26.46 13.4453L23.6186 20.914Z" fill="white"/>
<path d="M82.2309 49.2515C67.1732 49.2515 58.3955 39.544 58.3955 24.6257C58.3955 9.70754 68.6718 0 86.0845 0C102.284 0 111.918 7.1379 111.918 18.9868V18.9868C111.918 19.2628 111.694 19.4865 111.418 19.4865H97.4314C97.1555 19.4865 96.9318 19.2628 96.9318 18.9868V18.9868C96.9318 14.5613 94.22 12.8482 85.7277 12.8482C75.4514 12.8482 72.6682 15.1323 72.6682 24.6257C72.6682 34.1192 75.3086 36.4033 85.0141 36.4033C88.0583 36.4033 90.4371 36.3562 92.2908 36.1858C96.4436 35.8039 94.6068 32.2633 90.4365 32.2633H88.6547C85.9346 32.2633 83.7295 30.0582 83.7295 27.3381V27.3381C83.7295 24.6181 85.9346 22.413 88.6547 22.413H98.9271C106.141 22.413 111.989 28.2612 111.989 35.4753V42.2934C111.989 45.742 109.194 48.5377 105.745 48.5377H104.604C101.786 48.5377 99.5009 46.2528 99.5009 43.4341V38.728C99.5009 38.5085 99.3229 38.3305 99.1034 38.3305V38.3305C98.9183 38.3305 98.7583 38.4581 98.7134 38.6377C97.3505 44.0933 93.2287 49.2515 82.2309 49.2515Z" fill="white"/>
<path d="M182.804 41.8295C182.804 45.5344 179.801 48.5377 176.096 48.5377V48.5377C172.391 48.5377 169.388 45.5344 169.388 41.8295V10.2057C169.388 4.96344 173.638 0.713787 178.88 0.713787V0.713787C181.887 0.713787 184.717 2.13885 186.507 4.55519L196.934 18.6299L203.758 29.3558C203.864 29.5218 204.047 29.6223 204.244 29.6223V29.6223C204.575 29.6223 204.838 29.3426 204.818 29.0116L204.213 19.2009V7.42196C204.213 3.71714 207.217 0.713787 210.922 0.713787V0.713787C214.626 0.713787 217.63 3.71714 217.63 7.42196V38.979C217.63 44.2581 213.35 48.5377 208.071 48.5377V48.5377C205.099 48.5377 202.297 47.1555 200.487 44.7977L189.227 30.1219L183.331 20.9642C183.225 20.7995 183.043 20.6999 182.847 20.6999V20.6999C182.514 20.6999 182.251 20.9803 182.272 21.3121L182.804 29.8364V41.8295Z" fill="white"/>
<path d="M251.194 49.2515C234.566 49.2515 224.79 39.544 224.79 24.6257C224.79 9.70754 234.566 0 251.194 0C267.251 0 276.885 6.83258 276.885 19.5013V19.5013C276.885 20.6758 275.933 21.6278 274.758 21.6278H263.883C262.787 21.6278 261.899 20.7395 261.899 19.6437V19.6437C261.899 15.658 259.329 12.8482 251.408 12.8482C241.703 12.8482 239.062 15.1323 239.062 24.6257C239.062 34.1192 241.703 36.4033 251.408 36.4033C259.329 36.4033 261.899 35.602 261.899 30.1772V30.1772C261.899 28.7669 263.042 27.6237 264.452 27.6237H274.331C275.742 27.6237 276.885 28.7669 276.885 30.1772V30.1772C276.885 44.1271 267.251 49.2515 251.194 49.2515Z" fill="white"/>
<path d="M311.409 41.8296C311.409 45.5344 308.405 48.5377 304.701 48.5377V48.5377C300.996 48.5377 297.992 45.5344 297.992 41.8296V36.8397C297.992 34.5528 297.322 32.3161 296.064 30.4061L283.568 11.4283C280.541 6.83192 283.838 0.713787 289.341 0.713787V0.713787C291.707 0.713787 293.908 1.92356 295.176 3.92058L300.347 12.063L304.175 18.376C304.324 18.6223 304.591 18.7727 304.879 18.7727V18.7727C305.167 18.7727 305.434 18.6223 305.583 18.376L309.411 12.063L314.588 3.91024C315.853 1.91966 318.047 0.713787 320.405 0.713787V0.713787C325.916 0.713787 329.197 6.86228 326.129 11.4403L313.373 30.4741C312.093 32.3851 311.409 34.6336 311.409 36.934V41.8296Z" fill="white"/>
<path d="M125.201 48.4901C121.912 48.4901 119.246 45.8242 119.246 42.5356V42.5356C119.246 39.247 121.912 36.5811 125.201 36.5811H155.742C159.03 36.5811 161.696 39.247 161.696 42.5356V42.5356C161.696 45.8242 159.03 48.4901 155.742 48.4901H125.201ZM125.2 12.7631C121.912 12.7631 119.246 10.0972 119.246 6.80858V6.80858C119.246 3.51999 121.912 0.854072 125.2 0.854072H155.742C159.03 0.854072 161.696 3.51999 161.696 6.80858V6.80858C161.696 10.0972 159.03 12.7631 155.742 12.7631H125.2Z" fill="white"/>
<path d="M128.232 19.0732C124.944 19.0732 122.278 21.7391 122.278 25.0277V25.0277C122.278 28.3163 124.944 30.9822 128.232 30.9822H152C155.289 30.9822 157.955 28.3163 157.955 25.0277V25.0277C157.955 21.7391 155.289 19.0732 152 19.0732H128.232Z" fill="white"/>
</svg>
