<svg width="258" height="265" viewBox="0 0 258 265" fill="none" xmlns="http://www.w3.org/2000/svg">
    <g filter="url(#filter0_d_127_2244)">
        <rect width="258" height="258" rx="129" fill="url(#paint0_linear_127_2244)" />
        <path
            d="M129.453 55.8249C139.662 55.8249 148.904 61.865 153.002 71.2153L193.344 163.267C198.199 174.344 190.084 186.76 177.991 186.76C170.932 186.76 164.63 182.338 162.228 175.701L136.031 103.315C134.911 100.22 131.972 98.1578 128.68 98.1578C125.556 98.1578 122.768 100.114 121.705 103.051L95.4608 175.567C93.036 182.267 86.6324 186.695 79.5078 186.598C67.4643 186.434 59.5379 173.977 64.4915 162.998L106.017 70.9617C110.174 61.7479 119.345 55.8249 129.453 55.8249Z"
            fill="white" />
        <rect x="5.16" y="5.16" width="247.68" height="247.68" rx="123.84" stroke="url(#paint1_linear_127_2244)"
            stroke-width="10.32" />
    </g>
    <defs>
        <filter id="filter0_d_127_2244" x="0" y="0" width="258" height="265" filterUnits="userSpaceOnUse"
            color-interpolation-filters="sRGB">
            <feFlood flood-opacity="0" result="BackgroundImageFix" />
            <feColorMatrix in="SourceAlpha" type="matrix" values="0 0 0 0 0 0 0 0 0 0 0 0 0 0 0 0 0 0 127 0"
                result="hardAlpha" />
            <feOffset dy="7" />
            <feComposite in2="hardAlpha" operator="out" />
            <feColorMatrix type="matrix" values="0 0 0 0 0 0 0 0 0 0 0 0 0 0 0 0 0 0 0.5 0" />
            <feBlend mode="normal" in2="BackgroundImageFix" result="effect1_dropShadow_127_2244" />
            <feBlend mode="normal" in="SourceGraphic" in2="effect1_dropShadow_127_2244" result="shape" />
        </filter>
        <linearGradient id="paint0_linear_127_2244" x1="28.5" y1="-3.09697e-06" x2="241" y2="244.5"
            gradientUnits="userSpaceOnUse">
            <stop stop-color="#222222" />
            <stop offset="1" stop-color="#100F0F" />
        </linearGradient>
        <linearGradient id="paint1_linear_127_2244" x1="-9.61124e-07" y1="258" x2="263.397" y2="252.367"
            gradientUnits="userSpaceOnUse">
            <stop stop-color="#EE4295" />
            <stop offset="1" stop-color="#FFAD80" />
        </linearGradient>
    </defs>
</svg>