<svg width="1512" height="993" viewBox="0 0 1512 993" fill="none" xmlns="http://www.w3.org/2000/svg">
<path d="M352.994 293.406C313.764 298.093 291.225 302.404 277.388 316.651C261.125 333.334 257.274 363.89 252.994 425C248.572 361.64 244.578 331.272 226.746 314.964C212.909 302.217 190.512 298.093 152.994 293.594C192.081 288.907 214.763 284.596 228.458 270.537C244.863 253.666 248.715 223.298 252.994 162C256.988 218.424 260.555 248.604 273.822 266.038C287.088 283.471 310.198 288.345 352.994 293.406Z" fill="black" fill-opacity="0.14"/>
<path d="M1257.99 701.438C1232.1 704.521 1217.23 707.357 1208.09 716.728C1197.36 727.703 1194.82 747.802 1191.99 788C1189.08 746.322 1186.44 726.346 1174.67 715.619C1165.54 707.234 1150.76 704.521 1125.99 701.562C1151.79 698.479 1166.76 695.643 1175.8 686.395C1186.63 675.297 1189.17 655.321 1191.99 615C1194.63 652.115 1196.98 671.968 1205.74 683.435C1214.5 694.903 1229.75 698.109 1257.99 701.438Z" fill="black" fill-opacity="0.14"/>
<path d="M1524.99 478.448C1503.03 481.067 1490.4 483.477 1482.65 491.44C1473.55 500.765 1471.39 517.843 1468.99 552C1466.52 516.586 1464.28 499.612 1454.3 490.497C1446.55 483.372 1434 481.067 1412.99 478.552C1434.88 475.933 1447.58 473.523 1455.25 465.665C1464.44 456.235 1466.6 439.262 1468.99 405C1471.23 436.537 1473.23 453.406 1480.66 463.15C1488.09 472.895 1501.03 475.619 1524.99 478.448Z" fill="black" fill-opacity="0.14"/>
<path d="M93.9941 674.467C80.0676 676.124 72.0662 677.649 67.1539 682.686C61.3807 688.586 60.0134 699.391 58.4941 721C56.9242 698.595 55.5063 687.857 49.176 682.09C44.2638 677.582 36.313 676.124 22.9941 674.533C36.87 672.876 44.9221 671.351 49.7837 666.38C55.6076 660.414 56.9749 649.676 58.4941 628C59.9121 647.952 61.1782 658.624 65.8879 664.789C70.5976 670.954 78.8016 672.677 93.9941 674.467Z" fill="black" fill-opacity="0.14"/>
<path d="M357.994 836.456C339.556 838.648 328.963 840.664 322.459 847.327C314.816 855.13 313.006 869.42 310.994 898C308.916 868.368 307.038 854.165 298.657 846.538C292.154 840.577 281.628 838.648 263.994 836.544C282.365 834.352 293.026 832.336 299.462 825.761C307.172 817.87 308.983 803.668 310.994 775C312.871 801.388 314.548 815.503 320.783 823.656C327.018 831.81 337.88 834.089 357.994 836.456Z" fill="black" fill-opacity="0.14"/>
<path d="M53.9941 907.456C35.5562 909.648 24.9628 911.664 18.4592 918.327C10.8158 926.13 9.00555 940.42 6.99414 969C4.91568 939.368 3.03836 925.165 -5.34252 917.538C-11.8461 911.577 -22.3725 909.648 -40.0059 907.544C-21.635 905.352 -10.9745 903.336 -4.53796 896.761C3.17246 888.87 4.98273 874.668 6.99414 846C8.87146 872.388 10.5476 886.503 16.783 894.656C23.0184 902.81 33.88 905.089 53.9941 907.456Z" fill="black" fill-opacity="0.14"/>
<path d="M875.994 358.467C862.068 360.124 854.066 361.649 849.154 366.686C843.381 372.586 842.013 383.391 840.494 405C838.924 382.595 837.506 371.857 831.176 366.09C826.264 361.582 818.313 360.124 804.994 358.533C818.87 356.876 826.922 355.351 831.784 350.38C837.608 344.414 838.975 333.676 840.494 312C841.912 331.952 843.178 342.624 847.888 348.789C852.598 354.954 860.802 356.677 875.994 358.467Z" fill="black" fill-opacity="0.14"/>
<path d="M1506.99 143.467C1493.07 145.124 1485.07 146.649 1480.15 151.686C1474.38 157.586 1473.01 168.391 1471.49 190C1469.92 167.595 1468.51 156.857 1462.18 151.09C1457.26 146.582 1449.31 145.124 1435.99 143.533C1449.87 141.876 1457.92 140.351 1462.78 135.38C1468.61 129.414 1469.97 118.676 1471.49 97C1472.91 116.952 1474.18 127.624 1478.89 133.789C1483.6 139.954 1491.8 141.677 1506.99 143.467Z" fill="black" fill-opacity="0.14"/>
<path d="M907.994 935.459C890.733 937.508 880.816 939.393 874.727 945.623C867.572 952.918 865.877 966.279 863.994 993C862.048 965.295 860.291 952.016 852.445 944.885C846.356 939.311 836.502 937.508 819.994 935.541C837.192 933.492 847.172 931.607 853.198 925.459C860.416 918.082 862.111 904.803 863.994 878C865.752 902.672 867.321 915.869 873.158 923.492C878.996 931.115 889.164 933.246 907.994 935.459Z" fill="black" fill-opacity="0.14"/>
<path d="M1078.99 87.4376C1052.71 90.5559 1037.61 93.4248 1028.34 102.904C1017.44 114.006 1014.86 134.337 1011.99 175C1009.03 132.84 1006.36 112.634 994.408 101.782C985.137 93.3001 970.131 90.5559 944.994 87.5624C971.182 84.444 986.379 81.5752 995.555 72.2202C1006.55 60.9943 1009.13 40.7876 1011.99 0C1014.67 37.5445 1017.06 57.6265 1025.95 69.2267C1034.84 80.8268 1050.32 84.0698 1078.99 87.4376Z" fill="black" fill-opacity="0.14"/>
</svg>
