<svg width="311" height="601" viewBox="0 0 311 601" fill="none" xmlns="http://www.w3.org/2000/svg">
    <g filter="url(#filter0_bd_265_94)">
        <path
            d="M76.5714 49.9644C61.5521 51.7463 52.9228 53.3856 47.625 58.8026C41.3988 65.1461 39.9242 76.7641 38.2857 100C36.5926 75.9088 35.0634 64.3621 28.2364 58.1611C22.9387 53.3143 14.364 51.7463 0 50.0356C14.9647 48.2537 23.6487 46.6144 28.8918 41.2687C35.1726 34.8539 36.6472 23.3072 38.2857 0C39.815 21.454 41.1804 32.9294 46.2596 39.5581C51.3389 46.1867 60.1867 48.0399 76.5714 49.9644Z"
            fill="url(#paint0_linear_265_94)" fill-opacity="0.3" />
        <path
            d="M29.2997 41.6688L29.3001 41.6685C32.5513 38.3479 34.5211 33.7331 35.8893 27.0842C36.9422 21.9679 37.6468 15.6033 38.2891 7.62898C38.8707 14.7787 39.4988 20.6299 40.3793 25.4414C41.5529 31.8544 43.1852 36.4853 45.806 39.9056C48.4385 43.3412 52.0365 45.5151 57.0052 47.0706C60.9918 48.3187 65.889 49.177 71.9192 49.966C66.5177 50.6743 62.0341 51.4284 58.2991 52.4699C53.5461 53.7952 49.9605 55.5975 47.2169 58.4027C43.9918 61.6887 42.0361 66.305 40.6752 72.952C39.6299 78.057 38.9272 84.405 38.2864 92.3391C37.6161 84.0304 36.8763 77.4681 35.7447 72.2506C34.2859 65.5242 32.1603 60.9536 28.6213 57.7387C25.8783 55.2296 22.3124 53.5939 17.6635 52.3697C14.0462 51.4171 9.74533 50.707 4.62725 50.0355C10.0202 49.3271 14.507 48.5742 18.244 47.5393C22.9955 46.2234 26.5823 44.4394 29.2997 41.6688Z"
            stroke="url(#paint1_linear_265_94)" stroke-width="1.14286" />
    </g>
    <g filter="url(#filter1_bd_265_94)">
        <path
            d="M310.194 544.965C295.518 546.711 287.087 548.318 281.91 553.627C275.827 559.843 274.386 571.229 272.785 594C271.131 570.391 269.637 559.075 262.966 552.998C257.79 548.248 249.411 546.711 235.376 545.035C249.998 543.289 258.483 541.682 263.606 536.443C269.743 530.157 271.184 518.841 272.785 496C274.279 517.025 275.613 528.271 280.576 534.767C285.539 541.263 294.184 543.079 310.194 544.965Z"
            fill="#F53E80" fill-opacity="0.14" />
        <path
            d="M264.36 537.18L264.36 537.179C267.633 533.827 269.584 529.198 270.929 522.641C271.702 518.872 272.284 514.42 272.79 509.144C273.229 513.688 273.722 517.617 274.343 521.021C275.495 527.335 277.108 531.963 279.739 535.407C282.391 538.878 286.008 541.056 290.927 542.6C294.052 543.582 297.737 544.317 302.078 544.967C298.31 545.529 295.042 546.152 292.206 546.945C287.513 548.258 283.919 550.057 281.157 552.89C277.909 556.209 275.972 560.842 274.634 567.395C273.868 571.148 273.29 575.577 272.786 580.816C272.25 575.248 271.629 570.598 270.787 566.702C269.351 560.065 267.244 555.47 263.678 552.221C260.916 549.687 257.346 548.056 252.762 546.845C250.062 546.132 246.982 545.558 243.468 545.034C247.231 544.473 250.499 543.852 253.336 543.064C258.026 541.761 261.622 539.98 264.36 537.18Z"
            stroke="url(#paint2_linear_265_94)" stroke-width="2.10753" />
    </g>
    <defs>
        <filter id="filter0_bd_265_94" x="-4" y="-4" width="84.5713" height="108.571" filterUnits="userSpaceOnUse"
            color-interpolation-filters="sRGB">
            <feFlood flood-opacity="0" result="BackgroundImageFix" />
            <feGaussianBlur in="BackgroundImageFix" stdDeviation="2" />
            <feComposite in2="SourceAlpha" operator="in" result="effect1_backgroundBlur_265_94" />
            <feColorMatrix in="SourceAlpha" type="matrix" values="0 0 0 0 0 0 0 0 0 0 0 0 0 0 0 0 0 0 127 0"
                result="hardAlpha" />
            <feOffset dy="4.57143" />
            <feColorMatrix type="matrix" values="0 0 0 0 0 0 0 0 0 0 0 0 0 0 0 0 0 0 0.25 0" />
            <feBlend mode="normal" in2="effect1_backgroundBlur_265_94" result="effect2_dropShadow_265_94" />
            <feBlend mode="normal" in="SourceGraphic" in2="effect2_dropShadow_265_94" result="shape" />
        </filter>
        <filter id="filter1_bd_265_94" x="228" y="488.624" width="89.5701" height="112.753" filterUnits="userSpaceOnUse"
            color-interpolation-filters="sRGB">
            <feFlood flood-opacity="0" result="BackgroundImageFix" />
            <feGaussianBlur in="BackgroundImageFix" stdDeviation="3.68817" />
            <feComposite in2="SourceAlpha" operator="in" result="effect1_backgroundBlur_265_94" />
            <feColorMatrix in="SourceAlpha" type="matrix" values="0 0 0 0 0 0 0 0 0 0 0 0 0 0 0 0 0 0 127 0"
                result="hardAlpha" />
            <feOffset dy="6.32258" />
            <feColorMatrix type="matrix" values="0 0 0 0 0 0 0 0 0 0 0 0 0 0 0 0 0 0 0.25 0" />
            <feBlend mode="normal" in2="effect1_backgroundBlur_265_94" result="effect2_dropShadow_265_94" />
            <feBlend mode="normal" in="SourceGraphic" in2="effect2_dropShadow_265_94" result="shape" />
        </filter>
        <linearGradient id="paint0_linear_265_94" x1="50.8571" y1="39.4286" x2="25.4286" y2="69.4286"
            gradientUnits="userSpaceOnUse">
            <stop stop-color="#FE4343" />
            <stop offset="1" stop-color="#FE4343" stop-opacity="0" />
        </linearGradient>
        <linearGradient id="paint1_linear_265_94" x1="-2.85251e-07" y1="100" x2="78.188" y2="98.7196"
            gradientUnits="userSpaceOnUse">
            <stop stop-color="#EE4295" />
            <stop offset="1" stop-color="#FFAD80" />
        </linearGradient>
        <linearGradient id="paint2_linear_265_94" x1="235.376" y1="594" x2="311.773" y2="592.753"
            gradientUnits="userSpaceOnUse">
            <stop stop-color="#EE4295" />
            <stop offset="1" stop-color="#FFAD80" />
        </linearGradient>
    </defs>
</svg>