<svg width="55" height="55" viewBox="0 0 55 55" fill="none" xmlns="http://www.w3.org/2000/svg">
<g clip-path="url(#clip0_752_5554)">
<path d="M16.0418 25.2084V29.7917H38.9585V25.2084H16.0418ZM27.5002 4.58337C14.8502 4.58337 4.5835 14.85 4.5835 27.5C4.5835 40.15 14.8502 50.4167 27.5002 50.4167C40.1502 50.4167 50.4168 40.15 50.4168 27.5C50.4168 14.85 40.1502 4.58337 27.5002 4.58337ZM27.5002 45.8334C17.3939 45.8334 9.16683 37.6063 9.16683 27.5C9.16683 17.3938 17.3939 9.16671 27.5002 9.16671C37.6064 9.16671 45.8335 17.3938 45.8335 27.5C45.8335 37.6063 37.6064 45.8334 27.5002 45.8334Z" fill="white"/>
</g>
<defs>
<clipPath id="clip0_752_5554">
<rect width="55" height="55" fill="white"/>
</clipPath>
</defs>
</svg>
