<svg width="182" height="38" viewBox="0 0 182 38" fill="none" xmlns="http://www.w3.org/2000/svg">
<g clip-path="url(#clip0_1_17)">
<path d="M10.8048 29.3391L0.506353 29.5193L0 0.279687L10.3833 0.0978909C13.3057 0.0466151 15.8313 0.585787 17.9601 1.71385C20.0889 2.84347 21.7423 4.48741 22.9202 6.6472C24.0981 8.807 24.7125 11.405 24.765 14.4411C24.8175 17.4866 24.2941 20.1141 23.1919 22.3236C22.0897 24.5331 20.4888 26.2408 18.3862 27.4496C16.2836 28.6569 13.7564 29.2878 10.8063 29.3391H10.8048ZM6.55635 24.1151L10.4574 24.0468C12.2729 24.0157 13.7966 23.6614 15.0285 22.9886C16.2604 22.3143 17.179 21.2841 17.7841 19.8981C18.3893 18.5121 18.6733 16.7283 18.6347 14.5483C18.5977 12.3885 18.2519 10.6281 17.5989 9.26848C16.9459 7.9089 15.9949 6.91601 14.7444 6.29138C13.494 5.6652 11.9611 5.36842 10.1456 5.40105L6.23061 5.46942L6.55326 24.1151H6.55635Z" fill="#F4F4F4"/>
<path d="M52.7456 29.4385L46.1646 29.5535L55.6865 0.138289L63.6013 0L74.1236 29.064L67.5426 29.179L59.8747 6.74975L59.6478 6.75442L52.7487 29.4401L52.7456 29.4385ZM52.1343 17.9527L67.6815 17.6793L67.7649 22.5054L52.2177 22.7789L52.1343 17.9527V17.9527Z" fill="#F4F4F4"/>
<path d="M84.8867 37.9969C82.9292 38.0311 81.2481 37.7918 79.8448 37.279C78.44 36.7663 77.3192 36.0546 76.4809 35.1457C75.6427 34.2367 75.09 33.208 74.8245 32.0613L80.4005 31.2067C80.5781 31.6418 80.8544 32.0458 81.2311 32.4203C81.6062 32.7947 82.1018 33.0931 82.7146 33.3153C83.329 33.5375 84.0747 33.6416 84.9546 33.626C86.2684 33.6027 87.349 33.2624 88.1934 32.6052C89.0379 31.9479 89.447 30.8665 89.4207 29.3624L89.3512 25.3504L89.0965 25.3551C88.8418 25.9688 88.4543 26.5515 87.9356 27.1031C87.4154 27.6547 86.7423 28.11 85.9164 28.4674C85.0905 28.8247 84.1009 29.0128 82.9462 29.0345C81.3098 29.0625 79.817 28.7067 78.4647 27.9639C77.1139 27.2212 76.0286 26.0652 75.212 24.4943C74.3953 22.9234 73.9646 20.9252 73.9229 18.4966C73.8797 16.012 74.2456 13.9299 75.0205 12.2502C75.7955 10.5706 76.8453 9.30422 78.1683 8.45273C79.4913 7.60124 80.9532 7.16151 82.551 7.13355C83.7706 7.11179 84.7956 7.30136 85.6262 7.70069C86.4567 8.10002 87.1298 8.60345 87.6454 9.20788C88.161 9.81232 88.5624 10.4074 88.8464 10.9932L89.0734 10.9886L89.0101 7.30447L95.0107 7.19881L95.3951 29.3422C95.4275 31.2083 94.9999 32.7761 94.1138 34.0487C93.2276 35.3212 91.9895 36.2877 90.3964 36.9496C88.8048 37.61 86.9677 37.9596 84.8882 37.9953L84.8867 37.9969ZM84.7786 24.4321C85.7527 24.415 86.574 24.1555 87.2409 23.6537C87.9078 23.1518 88.4157 22.4386 88.7646 21.5141C89.112 20.5895 89.2756 19.4848 89.254 18.1998C89.2324 16.9148 89.0332 15.8023 88.6566 14.8606C88.2814 13.9206 87.7473 13.1934 87.0588 12.6822C86.3687 12.171 85.5366 11.9239 84.5625 11.941C83.5699 11.9581 82.7378 12.2425 82.0662 12.7925C81.3947 13.3426 80.8915 14.0962 80.5595 15.0533C80.2261 16.012 80.0702 17.1137 80.0918 18.3614C80.1134 19.6277 80.3095 20.717 80.68 21.629C81.0505 22.5411 81.5784 23.2419 82.2623 23.7298C82.9477 24.2177 83.786 24.4523 84.7786 24.4352V24.4321Z" fill="#F4F4F4"/>
<path d="M107.569 29.7306C105.328 29.7695 103.393 29.3453 101.765 28.4549C100.136 27.5646 98.8732 26.2827 97.9732 24.6077C97.0732 22.9343 96.6039 20.9407 96.5637 18.6271C96.5251 16.371 96.925 14.3836 97.7663 12.6651C98.6061 10.9466 99.8102 9.59634 101.379 8.61744C102.946 7.63854 104.798 7.12889 106.936 7.09159C108.373 7.06673 109.718 7.27339 110.97 7.71312C112.222 8.15285 113.321 8.8272 114.269 9.73307C115.217 10.6405 115.963 11.7857 116.506 13.1717C117.049 14.5577 117.338 16.1829 117.371 18.0475L117.4 19.7179L99.0029 20.0411L98.938 16.2715L111.648 16.0478C111.632 15.173 111.43 14.3992 111.04 13.731C110.649 13.0613 110.118 12.5408 109.445 12.1663C108.772 11.7919 107.995 11.6132 107.115 11.6287C106.198 11.6443 105.391 11.8711 104.693 12.3062C103.995 12.7428 103.455 13.3177 103.071 14.034C102.686 14.7503 102.496 15.5412 102.501 16.4082L102.563 19.9913C102.581 21.0759 102.799 22.0097 103.214 22.7929C103.63 23.576 104.21 24.1742 104.956 24.5906C105.701 25.0055 106.58 25.2044 107.591 25.1873C108.262 25.1748 108.875 25.0692 109.429 24.8687C109.984 24.6683 110.456 24.3746 110.847 23.9877C111.237 23.6008 111.532 23.1285 111.73 22.5722L117.324 22.8457C117.063 24.2022 116.504 25.3908 115.648 26.4101C114.791 27.4294 113.678 28.2296 112.312 28.8108C110.945 29.3919 109.363 29.698 107.568 29.7291L107.569 29.7306Z" fill="#F4F4F4"/>
<path d="M124.75 16.7004L124.969 29.3779L118.927 29.4836L118.547 7.55308L124.305 7.45208L124.373 11.3211L124.628 11.3164C125.088 10.033 125.88 9.00744 127 8.23986C128.123 7.47228 129.492 7.0745 131.108 7.04653C132.621 7.02012 133.946 7.32933 135.084 7.97571C136.22 8.6221 137.112 9.55594 137.757 10.7772C138.403 11.9985 138.741 13.4622 138.77 15.1652L139.012 29.1277L132.97 29.2334L132.746 16.3554C132.732 15.0129 132.374 13.9703 131.67 13.2245C130.966 12.4802 130.009 12.1182 128.799 12.1399C127.985 12.1539 127.272 12.3435 126.659 12.7055C126.046 13.0691 125.573 13.5881 125.239 14.2655C124.906 14.943 124.742 15.7525 124.75 16.6941V16.7004Z" fill="#F4F4F4"/>
<path d="M151.037 29.7275C148.805 29.7664 146.879 29.322 145.26 28.3943C143.641 27.4652 142.389 26.1569 141.503 24.4694C140.616 22.7804 140.155 20.8273 140.116 18.61C140.078 16.3632 140.476 14.3836 141.311 12.6698C142.146 10.9559 143.355 9.60566 144.937 8.6221C146.518 7.63698 148.411 7.12578 150.615 7.08693C152.516 7.05275 154.186 7.37128 155.626 8.04097C157.067 8.71067 158.214 9.66626 159.067 10.9078C159.921 12.1492 160.406 13.6176 160.52 15.3097L154.817 15.4107C154.638 14.3184 154.198 13.4436 153.502 12.7848C152.804 12.1259 151.903 11.8059 150.798 11.8261C149.86 11.8431 149.05 12.112 148.363 12.6325C147.678 13.1546 147.148 13.9035 146.778 14.8808C146.407 15.8582 146.233 17.0375 146.257 18.4173C146.282 19.8158 146.494 21.0029 146.893 21.9771C147.293 22.9513 147.847 23.6878 148.556 24.1897C149.265 24.6916 150.087 24.934 151.023 24.9169C151.713 24.9045 152.332 24.7507 152.88 24.4554C153.428 24.1602 153.88 23.736 154.234 23.1813C154.587 22.6282 154.816 21.9647 154.916 21.1909L160.619 21.0899C160.554 22.7664 160.128 24.2472 159.341 25.5322C158.555 26.8172 157.457 27.8288 156.052 28.5684C154.646 29.3064 152.974 29.6933 151.035 29.7275H151.037Z" fill="#F4F4F4"/>
<path d="M165.942 37.6302C165.176 37.6442 164.458 37.596 163.79 37.4903C163.121 37.3831 162.567 37.2433 162.129 37.0693L163.412 32.5057C164.125 32.7124 164.767 32.8196 165.34 32.8289C165.912 32.8382 166.406 32.6953 166.822 32.4032C167.237 32.1095 167.572 31.6185 167.825 30.9286L168.163 29.9948L159.957 7.57483L166.311 7.46295L171.101 23.489L171.328 23.4843L175.603 7.2998L182 7.18793L173.952 31.6371C173.566 32.8243 173.034 33.8638 172.353 34.7572C171.674 35.6491 170.808 36.3452 169.756 36.8455C168.705 37.3443 167.433 37.6069 165.939 37.6333L165.942 37.6302Z" fill="#F4F4F4"/>
<path d="M23.4482 29.5162V34.8644H43.8304V29.5162H23.4482Z" fill="#F4F4F4"/>
</g>
<defs>
<clipPath id="clip0_1_17">
<rect width="182" height="38" fill="white"/>
</clipPath>
</defs>
</svg>
