<svg width="798" height="702" viewBox="0 0 798 702" fill="none" xmlns="http://www.w3.org/2000/svg">
<g filter="url(#filter0_bd_265_100)">
<path d="M163.376 115.895C139.961 118.673 126.508 121.229 118.248 129.674C108.541 139.564 106.243 157.677 103.688 193.902C101.049 156.343 98.6644 138.342 88.021 128.674C79.7618 121.118 66.3937 118.673 44 116.006C67.3303 113.228 80.8687 110.673 89.0428 102.339C98.8347 92.3378 101.134 74.3363 103.688 38C106.072 71.4472 108.201 89.3376 116.12 99.6717C124.038 110.006 137.832 112.895 163.376 115.895Z" fill="url(#paint0_linear_265_100)" fill-opacity="0.3"/>
</g>
<path fill-rule="evenodd" clip-rule="evenodd" d="M90.4719 103.738L90.4706 103.739C86.048 108.248 80.2523 111.103 72.7388 113.183C68.7332 114.293 64.1924 115.194 59.0503 116.005C63.8052 116.754 68.0444 117.578 71.8202 118.573C79.16 120.506 84.9094 123.118 89.3684 127.196C95.1294 132.43 98.5138 139.815 100.811 150.405C101.995 155.867 102.905 162.254 103.689 169.742C104.42 162.757 105.259 156.726 106.327 151.511C108.466 141.06 111.575 133.619 116.82 128.274C121.281 123.713 127.073 120.83 134.591 118.733C138.599 117.616 143.142 116.71 148.293 115.897C142.252 114.94 137.038 113.85 132.541 112.442C124.651 109.972 118.816 106.479 114.532 100.888C110.288 95.35 107.703 87.9268 105.861 77.8633C105.015 73.2414 104.319 68.0147 103.697 62.0959C102.962 69.1363 102.118 75.2047 101.038 80.4483C98.8866 90.9052 95.7555 98.3415 90.4719 103.738ZM102.69 51.2323C103.03 47.1147 103.357 42.7115 103.688 38C104.024 42.7119 104.355 47.115 104.697 51.2318C106.787 76.3378 109.316 90.7934 116.12 99.6717C123.159 108.858 134.84 112.161 155.29 114.889C157.846 115.23 160.538 115.562 163.376 115.895C160.537 116.232 157.844 116.566 155.29 116.907C136.775 119.38 125.506 122.253 118.248 129.674C109.809 138.273 106.969 153.087 104.693 180.617C104.351 184.751 104.022 189.172 103.688 193.902C103.356 189.171 103.027 184.75 102.686 180.617C100.317 151.94 97.3237 137.124 88.021 128.674C80.8029 122.07 69.6828 119.371 52.0461 117.015C49.5023 116.675 46.8228 116.343 44 116.006C46.8227 115.67 49.502 115.337 52.0459 114.997C70.5277 112.525 81.8577 109.664 89.0428 102.339C97.5651 93.6346 100.412 78.8701 102.69 51.2323Z" fill="url(#paint1_linear_265_100)"/>
<g filter="url(#filter1_bd_265_100)">
<path d="M213.265 485.638C203.479 486.796 197.857 487.862 194.405 491.385C190.349 495.511 189.388 503.066 188.32 518.177C187.217 502.51 186.221 495.001 181.773 490.968C178.321 487.816 172.735 486.796 163.376 485.684C173.126 484.525 178.784 483.459 182.2 479.982C186.292 475.811 187.253 468.301 188.32 453.144C189.317 467.096 190.206 474.559 193.515 478.87C196.825 483.181 202.589 484.386 213.265 485.638Z" fill="#F53E80" fill-opacity="0.14"/>
</g>
<g filter="url(#filter2_b_265_100)">
<path fill-rule="evenodd" clip-rule="evenodd" d="M184.134 481.88L184.133 481.882C182.422 483.622 180.335 484.808 177.896 485.681C180.083 486.464 181.99 487.498 183.596 488.964C185.881 491.037 187.322 493.74 188.317 497.134C189.225 494.024 190.506 491.486 192.471 489.487C194.203 487.721 196.305 486.519 198.769 485.635C195.719 484.54 193.25 482.974 191.366 480.52C190.013 478.757 189.051 476.649 188.326 474.172C187.411 477.306 186.118 479.857 184.134 481.88ZM186.956 467.454C187.517 463.647 187.911 458.958 188.32 453.144C188.736 458.961 189.133 463.65 189.694 467.453C190.479 472.771 191.586 476.356 193.515 478.87C195.701 481.717 198.957 483.209 203.992 484.255C206.581 484.793 209.639 485.213 213.265 485.638C209.634 486.067 206.577 486.485 203.991 487.019C199.606 487.926 196.576 489.169 194.405 491.385C191.911 493.922 190.587 497.755 189.689 503.845C189.127 507.659 188.731 512.358 188.32 518.177C187.91 512.352 187.515 507.655 186.951 503.845C185.999 497.407 184.567 493.502 181.773 490.968C179.658 489.037 176.743 487.907 172.65 487.065C170.061 486.532 167.002 486.115 163.376 485.684C167.001 485.253 170.061 484.835 172.649 484.301C177.023 483.399 180.054 482.166 182.2 479.982C184.722 477.411 186.055 473.571 186.956 467.454Z" fill="url(#paint2_linear_265_100)"/>
</g>
<g filter="url(#filter3_bd_265_100)">
<path d="M754.194 607.224C737.385 609.224 727.727 611.064 721.798 617.145C714.83 624.265 713.18 637.307 711.346 663.389C709.451 636.346 707.74 623.385 700.099 616.425C694.17 610.984 684.574 609.224 668.498 607.304C685.246 605.304 694.965 603.464 700.833 597.463C707.862 590.263 709.512 577.302 711.346 551.139C713.057 575.221 714.585 588.102 720.27 595.543C725.954 602.984 735.857 605.064 754.194 607.224Z" fill="#F53E80" fill-opacity="0.14"/>
</g>
<g filter="url(#filter4_b_265_100)">
<path fill-rule="evenodd" clip-rule="evenodd" d="M700.833 597.463C696.282 602.117 689.415 604.268 678.75 605.932C675.663 606.414 672.258 606.855 668.498 607.304C672.258 607.753 675.664 608.194 678.751 608.674C688.862 610.249 695.557 612.257 700.099 616.425C705.972 621.775 708.342 630.672 709.985 646.784C710.479 651.633 710.908 657.134 711.346 663.389C711.785 657.137 712.214 651.635 712.709 646.784C714.276 631.395 716.5 622.559 721.798 617.145C726.396 612.429 733.236 610.264 743.916 608.597C747.007 608.114 750.42 607.673 754.194 607.224C750.424 606.78 747.01 606.339 743.917 605.855C731.963 603.982 724.786 601.454 720.27 595.543C716.058 590.03 714.128 581.529 712.714 567.697C712.22 562.863 711.789 557.377 711.346 551.139C710.909 557.375 710.482 562.861 709.991 567.698C708.42 583.153 706.186 591.979 700.833 597.463ZM711.354 578.35C711.147 579.607 710.927 580.809 710.692 581.957C709.126 589.589 706.81 595.219 702.772 599.356L702.77 599.358C699.382 602.822 694.987 604.962 689.471 606.495C688.437 606.782 687.356 607.049 686.226 607.302C687.113 607.499 687.969 607.706 688.795 607.924C694.171 609.344 698.517 611.297 701.928 614.425C706.342 618.449 708.852 624.062 710.526 631.803C710.821 633.17 711.093 634.614 711.345 636.141C711.547 634.913 711.762 633.738 711.992 632.614C713.548 624.991 715.846 619.354 719.86 615.251C723.273 611.752 727.663 609.59 733.186 608.045C734.234 607.752 735.33 607.479 736.476 607.222C734.768 606.838 733.17 606.418 731.675 605.949C725.846 604.119 721.398 601.484 718.117 597.188C714.891 592.965 712.988 587.388 711.652 580.068C711.55 579.508 711.451 578.935 711.354 578.35Z" fill="url(#paint3_linear_265_100)"/>
</g>
<g filter="url(#filter5_bd_265_100)">
<path d="M668.67 239.296C651.861 241.296 642.204 243.136 636.275 249.217C629.307 256.337 627.656 269.379 625.822 295.461C623.928 268.418 622.216 255.457 614.576 248.497C608.647 243.056 599.05 241.296 582.975 239.376C599.723 237.376 609.441 235.536 615.309 229.535C622.338 222.335 623.989 209.374 625.822 183.211C627.534 207.293 629.062 220.174 634.747 227.615C640.431 235.056 650.333 237.136 668.67 239.296Z" fill="#F53E80" fill-opacity="0.14"/>
</g>
<g filter="url(#filter6_b_265_100)">
<path fill-rule="evenodd" clip-rule="evenodd" d="M615.309 229.535C610.758 234.189 603.892 236.34 593.227 238.004C590.14 238.486 586.734 238.927 582.975 239.376C586.735 239.825 590.14 240.266 593.227 240.746C603.339 242.321 610.033 244.329 614.576 248.497C620.449 253.847 622.819 262.744 624.461 278.857C624.956 283.705 625.384 289.206 625.822 295.461C626.262 289.209 626.691 283.707 627.185 278.856C628.753 263.467 630.977 254.631 636.275 249.217C640.873 244.501 647.713 242.336 658.392 240.669C661.484 240.186 664.897 239.745 668.67 239.296C664.9 238.852 661.487 238.411 658.393 237.927C646.44 236.054 639.262 233.526 634.747 227.615C630.534 222.102 628.604 213.601 627.191 199.769C626.697 194.935 626.266 189.449 625.822 183.211C625.385 189.447 624.959 194.933 624.467 199.77C622.896 215.225 620.663 224.051 615.309 229.535ZM625.831 210.422C625.624 211.679 625.404 212.881 625.169 214.029C623.603 221.661 621.287 227.291 617.248 231.428L617.246 231.43C613.858 234.894 609.463 237.034 603.947 238.567C602.913 238.854 601.833 239.122 600.703 239.374C601.589 239.571 602.445 239.778 603.272 239.996C608.648 241.416 612.994 243.369 616.405 246.497C620.818 250.521 623.328 256.134 625.002 263.875C625.298 265.242 625.569 266.686 625.822 268.213C626.024 266.985 626.239 265.81 626.468 264.686C628.024 257.063 630.323 251.426 634.336 247.324C637.75 243.824 642.139 241.662 647.663 240.117C648.71 239.824 649.806 239.551 650.953 239.294C649.245 238.91 647.646 238.49 646.152 238.021C640.323 236.191 635.875 233.556 632.593 229.26C629.367 225.037 627.465 219.46 626.129 212.14C626.027 211.58 625.927 211.007 625.831 210.422Z" fill="url(#paint4_linear_265_100)"/>
</g>
<defs>
<filter id="filter0_bd_265_100" x="37" y="31" width="133.376" height="170.902" filterUnits="userSpaceOnUse" color-interpolation-filters="sRGB">
<feFlood flood-opacity="0" result="BackgroundImageFix"/>
<feGaussianBlur in="BackgroundImageFix" stdDeviation="3.5"/>
<feComposite in2="SourceAlpha" operator="in" result="effect1_backgroundBlur_265_100"/>
<feColorMatrix in="SourceAlpha" type="matrix" values="0 0 0 0 0 0 0 0 0 0 0 0 0 0 0 0 0 0 127 0" result="hardAlpha"/>
<feOffset dy="8"/>
<feColorMatrix type="matrix" values="0 0 0 0 0 0 0 0 0 0 0 0 0 0 0 0 0 0 0.25 0"/>
<feBlend mode="normal" in2="effect1_backgroundBlur_265_100" result="effect2_dropShadow_265_100"/>
<feBlend mode="normal" in="SourceGraphic" in2="effect2_dropShadow_265_100" result="shape"/>
</filter>
<filter id="filter1_bd_265_100" x="153.892" y="443.66" width="68.8564" height="84.0009" filterUnits="userSpaceOnUse" color-interpolation-filters="sRGB">
<feFlood flood-opacity="0" result="BackgroundImageFix"/>
<feGaussianBlur in="BackgroundImageFix" stdDeviation="4.74194"/>
<feComposite in2="SourceAlpha" operator="in" result="effect1_backgroundBlur_265_100"/>
<feColorMatrix in="SourceAlpha" type="matrix" values="0 0 0 0 0 0 0 0 0 0 0 0 0 0 0 0 0 0 127 0" result="hardAlpha"/>
<feOffset dy="8.12903"/>
<feColorMatrix type="matrix" values="0 0 0 0 0 0 0 0 0 0 0 0 0 0 0 0 0 0 0.25 0"/>
<feBlend mode="normal" in2="effect1_backgroundBlur_265_100" result="effect2_dropShadow_265_100"/>
<feBlend mode="normal" in="SourceGraphic" in2="effect2_dropShadow_265_100" result="shape"/>
</filter>
<filter id="filter2_b_265_100" x="153.892" y="443.66" width="68.8564" height="84.0009" filterUnits="userSpaceOnUse" color-interpolation-filters="sRGB">
<feFlood flood-opacity="0" result="BackgroundImageFix"/>
<feGaussianBlur in="BackgroundImageFix" stdDeviation="4.74194"/>
<feComposite in2="SourceAlpha" operator="in" result="effect1_backgroundBlur_265_100"/>
<feBlend mode="normal" in="SourceGraphic" in2="effect1_backgroundBlur_265_100" result="shape"/>
</filter>
<filter id="filter3_bd_265_100" x="656.498" y="539.139" width="109.696" height="136.249" filterUnits="userSpaceOnUse" color-interpolation-filters="sRGB">
<feFlood flood-opacity="0" result="BackgroundImageFix"/>
<feGaussianBlur in="BackgroundImageFix" stdDeviation="6"/>
<feComposite in2="SourceAlpha" operator="in" result="effect1_backgroundBlur_265_100"/>
<feColorMatrix in="SourceAlpha" type="matrix" values="0 0 0 0 0 0 0 0 0 0 0 0 0 0 0 0 0 0 127 0" result="hardAlpha"/>
<feOffset dy="8.12903"/>
<feColorMatrix type="matrix" values="0 0 0 0 0 0 0 0 0 0 0 0 0 0 0 0 0 0 0.25 0"/>
<feBlend mode="normal" in2="effect1_backgroundBlur_265_100" result="effect2_dropShadow_265_100"/>
<feBlend mode="normal" in="SourceGraphic" in2="effect2_dropShadow_265_100" result="shape"/>
</filter>
<filter id="filter4_b_265_100" x="659.014" y="541.656" width="104.664" height="131.217" filterUnits="userSpaceOnUse" color-interpolation-filters="sRGB">
<feFlood flood-opacity="0" result="BackgroundImageFix"/>
<feGaussianBlur in="BackgroundImageFix" stdDeviation="4.74194"/>
<feComposite in2="SourceAlpha" operator="in" result="effect1_backgroundBlur_265_100"/>
<feBlend mode="normal" in="SourceGraphic" in2="effect1_backgroundBlur_265_100" result="shape"/>
</filter>
<filter id="filter5_bd_265_100" x="573.491" y="173.728" width="104.664" height="131.217" filterUnits="userSpaceOnUse" color-interpolation-filters="sRGB">
<feFlood flood-opacity="0" result="BackgroundImageFix"/>
<feGaussianBlur in="BackgroundImageFix" stdDeviation="4.74194"/>
<feComposite in2="SourceAlpha" operator="in" result="effect1_backgroundBlur_265_100"/>
<feColorMatrix in="SourceAlpha" type="matrix" values="0 0 0 0 0 0 0 0 0 0 0 0 0 0 0 0 0 0 127 0" result="hardAlpha"/>
<feOffset dy="8.12903"/>
<feColorMatrix type="matrix" values="0 0 0 0 0 0 0 0 0 0 0 0 0 0 0 0 0 0 0.25 0"/>
<feBlend mode="normal" in2="effect1_backgroundBlur_265_100" result="effect2_dropShadow_265_100"/>
<feBlend mode="normal" in="SourceGraphic" in2="effect2_dropShadow_265_100" result="shape"/>
</filter>
<filter id="filter6_b_265_100" x="573.491" y="173.728" width="104.664" height="131.217" filterUnits="userSpaceOnUse" color-interpolation-filters="sRGB">
<feFlood flood-opacity="0" result="BackgroundImageFix"/>
<feGaussianBlur in="BackgroundImageFix" stdDeviation="4.74194"/>
<feComposite in2="SourceAlpha" operator="in" result="effect1_backgroundBlur_265_100"/>
<feBlend mode="normal" in="SourceGraphic" in2="effect1_backgroundBlur_265_100" result="shape"/>
</filter>
<linearGradient id="paint0_linear_265_100" x1="123.287" y1="99.4698" x2="83.6436" y2="146.24" gradientUnits="userSpaceOnUse">
<stop stop-color="#FE4343"/>
<stop offset="1" stop-color="#FE4343" stop-opacity="0"/>
</linearGradient>
<linearGradient id="paint1_linear_265_100" x1="44" y1="193.902" x2="165.896" y2="191.906" gradientUnits="userSpaceOnUse">
<stop stop-color="#EE4295"/>
<stop offset="1" stop-color="#FFAD80"/>
</linearGradient>
<linearGradient id="paint2_linear_265_100" x1="163.376" y1="518.177" x2="214.318" y2="517.342" gradientUnits="userSpaceOnUse">
<stop stop-color="#EE4295"/>
<stop offset="1" stop-color="#FFAD80"/>
</linearGradient>
<linearGradient id="paint3_linear_265_100" x1="668.498" y1="663.389" x2="756.003" y2="661.96" gradientUnits="userSpaceOnUse">
<stop stop-color="#EE4295"/>
<stop offset="1" stop-color="#FFAD80"/>
</linearGradient>
<linearGradient id="paint4_linear_265_100" x1="582.975" y1="295.461" x2="670.48" y2="294.032" gradientUnits="userSpaceOnUse">
<stop stop-color="#EE4295"/>
<stop offset="1" stop-color="#FFAD80"/>
</linearGradient>
</defs>
</svg>
