<svg width="798" height="702" viewBox="0 0 798 702" fill="none" xmlns="http://www.w3.org/2000/svg">
    <g filter="url(#filter0_bd_265_100)">
        <path
            d="M213.265 485.638C203.479 486.796 197.857 487.862 194.405 491.385C190.349 495.511 189.388 503.066 188.32 518.177C187.217 502.51 186.221 495.001 181.773 490.968C178.321 487.816 172.735 486.796 163.376 485.684C173.126 484.525 178.784 483.459 182.2 479.982C186.292 475.811 187.253 468.301 188.32 453.144C189.317 467.096 190.206 474.559 193.515 478.87C196.825 483.181 202.589 484.386 213.265 485.638Z"
            fill="#F53E80" fill-opacity="0.14" />
        <path
            d="M172.653 485.683C173.674 485.478 174.63 485.255 175.524 485.008C178.713 484.127 181.231 482.902 183.166 480.932L183.167 480.931C185.476 478.577 186.813 475.362 187.721 470.956C187.944 469.874 188.144 468.709 188.325 467.455C188.447 468.299 188.578 469.103 188.718 469.867C189.493 474.096 190.593 477.288 192.441 479.695C194.316 482.138 196.86 483.643 200.224 484.694C201.369 485.052 202.621 485.361 203.988 485.637C202.959 485.844 201.997 486.069 201.096 486.32C197.903 487.208 195.388 488.446 193.438 490.437C191.144 492.77 189.817 495.989 188.915 500.389C188.695 501.458 188.499 502.607 188.32 503.843C188.114 502.425 187.885 501.121 187.625 499.922C186.654 495.456 185.207 492.253 182.685 489.966C180.736 488.187 178.244 487.068 175.134 486.251C174.354 486.046 173.527 485.858 172.653 485.683Z"
            stroke="url(#paint0_linear_265_100)" stroke-width="2.70968" />
    </g>
    <g filter="url(#filter1_bd_265_100)">
        <path
            d="M163.376 115.895C139.961 118.673 126.508 121.229 118.248 129.674C108.541 139.564 106.243 157.677 103.688 193.902C101.049 156.343 98.6644 138.342 88.021 128.674C79.7618 121.118 66.3937 118.673 44 116.006C67.3303 113.228 80.8687 110.673 89.0428 102.339C98.8347 92.3378 101.134 74.3363 103.688 38C106.072 71.4472 108.201 89.3376 116.12 99.6718C124.038 110.006 137.832 112.895 163.376 115.895Z"
            fill="url(#paint1_linear_265_100)" fill-opacity="0.3" />
        <path
            d="M88.6957 127.936C94.2364 132.97 97.5568 140.121 99.8333 150.617C101.538 158.477 102.672 168.29 103.689 180.617C104.66 168.865 105.735 159.388 107.306 151.712C109.43 141.34 112.485 134.119 117.535 128.974C121.83 124.582 127.44 121.765 134.86 119.696C140.5 118.124 147.231 116.971 155.29 115.898C146.26 114.697 138.881 113.38 132.84 111.488C125.079 109.059 119.448 105.659 115.326 100.28C111.224 94.9274 108.676 87.6877 106.845 77.6833C105.526 70.4777 104.57 61.7789 103.694 51.2321C102.721 63.0465 101.643 72.5508 100.059 80.2467C97.924 90.6214 94.8471 97.8398 89.7573 103.038L89.7567 103.039C85.5019 107.377 79.8899 110.165 72.4719 112.22C66.829 113.783 60.0931 114.933 52.0462 116.006C59.669 117.022 66.1137 118.104 71.5656 119.54C78.8228 121.451 84.4012 124.007 88.6957 127.936ZM88.6957 127.936C88.6958 127.936 88.6959 127.936 88.696 127.936L88.021 128.674L88.6934 127.934C88.6941 127.935 88.6949 127.935 88.6957 127.936Z"
            stroke="url(#paint2_linear_265_100)" stroke-width="2" />
    </g>
    <g filter="url(#filter2_bd_265_100)">
        <path
            d="M754.194 607.224C737.385 609.224 727.727 611.064 721.798 617.145C714.83 624.265 713.18 637.307 711.346 663.389C709.451 636.346 707.74 623.385 700.099 616.425C694.17 610.984 684.574 609.224 668.498 607.304C685.246 605.304 694.965 603.464 700.833 597.463C707.862 590.263 709.512 577.302 711.346 551.139C713.057 575.221 714.585 588.102 720.27 595.543C725.954 602.984 735.857 605.064 754.194 607.224Z"
            fill="#F53E80" fill-opacity="0.14" />
        <path
            d="M678.751 607.303C682.663 606.698 686.097 606.026 689.108 605.189C694.494 603.693 698.64 601.643 701.801 598.41L701.802 598.41C705.579 594.541 707.822 589.206 709.365 581.684C710.178 577.72 710.806 573.099 711.352 567.698C711.819 572.281 712.342 576.298 712.985 579.825C714.306 587.065 716.159 592.394 719.193 596.366C722.255 600.373 726.427 602.881 732.081 604.656C735.437 605.71 739.352 606.517 743.915 607.226C739.997 607.832 736.563 608.507 733.551 609.35C728.161 610.857 724.017 612.928 720.828 616.199C717.08 620.03 714.854 625.369 713.319 632.885C712.514 636.83 711.89 641.424 711.347 646.784C710.766 641.057 710.092 636.207 709.201 632.09C707.554 624.474 705.131 619.177 701.013 615.425C697.826 612.501 693.712 610.624 688.45 609.234C685.6 608.482 682.382 607.864 678.751 607.303Z"
            stroke="url(#paint3_linear_265_100)" stroke-width="2.70968" />
    </g>
    <g filter="url(#filter3_bd_265_100)">
        <path
            d="M668.67 239.296C651.861 241.296 642.204 243.136 636.275 249.217C629.307 256.337 627.656 269.379 625.822 295.461C623.928 268.418 622.216 255.457 614.576 248.497C608.647 243.056 599.05 241.296 582.975 239.376C599.723 237.376 609.441 235.536 615.309 229.535C622.338 222.335 623.989 209.374 625.822 183.211C627.534 207.293 629.062 220.174 634.747 227.615C640.431 235.056 650.333 237.136 668.67 239.296Z"
            fill="#F53E80" fill-opacity="0.14" />
        <path
            d="M593.228 239.375C597.14 238.77 600.573 238.098 603.584 237.261C608.971 235.765 613.117 233.715 616.278 230.483L616.279 230.482C620.055 226.613 622.298 221.278 623.841 213.756C624.655 209.792 625.283 205.171 625.829 199.77C626.295 204.353 626.818 208.37 627.462 211.897C628.783 219.137 630.636 224.466 633.67 228.438C636.732 232.446 640.904 234.953 646.558 236.728C649.914 237.782 653.829 238.589 658.392 239.298C654.474 239.904 651.039 240.579 648.028 241.422C642.637 242.929 638.494 245 635.305 248.271C631.556 252.102 629.33 257.441 627.796 264.957C626.99 268.902 626.367 273.496 625.823 278.856C625.242 273.129 624.568 268.279 623.678 264.162C622.031 256.546 619.607 251.249 615.49 247.497C612.302 244.573 608.189 242.696 602.926 241.306C600.077 240.554 596.859 239.936 593.228 239.375Z"
            stroke="url(#paint4_linear_265_100)" stroke-width="2.70968" />
    </g>
    <defs>
        <filter id="filter0_bd_265_100" x="153.892" y="443.66" width="68.8564" height="84.0009"
            filterUnits="userSpaceOnUse" color-interpolation-filters="sRGB">
            <feFlood flood-opacity="0" result="BackgroundImageFix" />
            <feGaussianBlur in="BackgroundImageFix" stdDeviation="4.74194" />
            <feComposite in2="SourceAlpha" operator="in" result="effect1_backgroundBlur_265_100" />
            <feColorMatrix in="SourceAlpha" type="matrix" values="0 0 0 0 0 0 0 0 0 0 0 0 0 0 0 0 0 0 127 0"
                result="hardAlpha" />
            <feOffset dy="8.12903" />
            <feColorMatrix type="matrix" values="0 0 0 0 0 0 0 0 0 0 0 0 0 0 0 0 0 0 0.25 0" />
            <feBlend mode="normal" in2="effect1_backgroundBlur_265_100" result="effect2_dropShadow_265_100" />
            <feBlend mode="normal" in="SourceGraphic" in2="effect2_dropShadow_265_100" result="shape" />
        </filter>
        <filter id="filter1_bd_265_100" x="37" y="31" width="133.376" height="170.902" filterUnits="userSpaceOnUse"
            color-interpolation-filters="sRGB">
            <feFlood flood-opacity="0" result="BackgroundImageFix" />
            <feGaussianBlur in="BackgroundImageFix" stdDeviation="3.5" />
            <feComposite in2="SourceAlpha" operator="in" result="effect1_backgroundBlur_265_100" />
            <feColorMatrix in="SourceAlpha" type="matrix" values="0 0 0 0 0 0 0 0 0 0 0 0 0 0 0 0 0 0 127 0"
                result="hardAlpha" />
            <feOffset dy="8" />
            <feColorMatrix type="matrix" values="0 0 0 0 0 0 0 0 0 0 0 0 0 0 0 0 0 0 0.25 0" />
            <feBlend mode="normal" in2="effect1_backgroundBlur_265_100" result="effect2_dropShadow_265_100" />
            <feBlend mode="normal" in="SourceGraphic" in2="effect2_dropShadow_265_100" result="shape" />
        </filter>
        <filter id="filter2_bd_265_100" x="659.014" y="541.656" width="104.664" height="131.217"
            filterUnits="userSpaceOnUse" color-interpolation-filters="sRGB">
            <feFlood flood-opacity="0" result="BackgroundImageFix" />
            <feGaussianBlur in="BackgroundImageFix" stdDeviation="4.74194" />
            <feComposite in2="SourceAlpha" operator="in" result="effect1_backgroundBlur_265_100" />
            <feColorMatrix in="SourceAlpha" type="matrix" values="0 0 0 0 0 0 0 0 0 0 0 0 0 0 0 0 0 0 127 0"
                result="hardAlpha" />
            <feOffset dy="8.12903" />
            <feColorMatrix type="matrix" values="0 0 0 0 0 0 0 0 0 0 0 0 0 0 0 0 0 0 0.25 0" />
            <feBlend mode="normal" in2="effect1_backgroundBlur_265_100" result="effect2_dropShadow_265_100" />
            <feBlend mode="normal" in="SourceGraphic" in2="effect2_dropShadow_265_100" result="shape" />
        </filter>
        <filter id="filter3_bd_265_100" x="573.491" y="173.728" width="104.664" height="131.217"
            filterUnits="userSpaceOnUse" color-interpolation-filters="sRGB">
            <feFlood flood-opacity="0" result="BackgroundImageFix" />
            <feGaussianBlur in="BackgroundImageFix" stdDeviation="4.74194" />
            <feComposite in2="SourceAlpha" operator="in" result="effect1_backgroundBlur_265_100" />
            <feColorMatrix in="SourceAlpha" type="matrix" values="0 0 0 0 0 0 0 0 0 0 0 0 0 0 0 0 0 0 127 0"
                result="hardAlpha" />
            <feOffset dy="8.12903" />
            <feColorMatrix type="matrix" values="0 0 0 0 0 0 0 0 0 0 0 0 0 0 0 0 0 0 0.25 0" />
            <feBlend mode="normal" in2="effect1_backgroundBlur_265_100" result="effect2_dropShadow_265_100" />
            <feBlend mode="normal" in="SourceGraphic" in2="effect2_dropShadow_265_100" result="shape" />
        </filter>
        <linearGradient id="paint0_linear_265_100" x1="163.376" y1="518.177" x2="214.318" y2="517.342"
            gradientUnits="userSpaceOnUse">
            <stop stop-color="#EE4295" />
            <stop offset="1" stop-color="#FFAD80" />
        </linearGradient>
        <linearGradient id="paint1_linear_265_100" x1="123.287" y1="99.4698" x2="83.6436" y2="146.24"
            gradientUnits="userSpaceOnUse">
            <stop stop-color="#FE4343" />
            <stop offset="1" stop-color="#FE4343" stop-opacity="0" />
        </linearGradient>
        <linearGradient id="paint2_linear_265_100" x1="44" y1="193.902" x2="165.896" y2="191.906"
            gradientUnits="userSpaceOnUse">
            <stop stop-color="#EE4295" />
            <stop offset="1" stop-color="#FFAD80" />
        </linearGradient>
        <linearGradient id="paint3_linear_265_100" x1="668.498" y1="663.389" x2="756.003" y2="661.96"
            gradientUnits="userSpaceOnUse">
            <stop stop-color="#EE4295" />
            <stop offset="1" stop-color="#FFAD80" />
        </linearGradient>
        <linearGradient id="paint4_linear_265_100" x1="582.975" y1="295.461" x2="670.48" y2="294.032"
            gradientUnits="userSpaceOnUse">
            <stop stop-color="#EE4295" />
            <stop offset="1" stop-color="#FFAD80" />
        </linearGradient>
    </defs>
</svg>