<svg width="1728" height="739" viewBox="0 0 1728 739" fill="none" xmlns="http://www.w3.org/2000/svg">
<path d="M-21 1.41284H1730" stroke="#BE2D61" stroke-width="2"/>
<path d="M-11 15H1740" stroke="#BE2D61" stroke-width="2"/>
<path d="M-11 28.6154H1740" stroke="#BE2D61" stroke-width="2"/>
<path d="M-11 42.2308H1740" stroke="#BE2D61" stroke-width="2"/>
<path d="M-11 55.8462H1740" stroke="#BE2D61" stroke-width="2"/>
<path d="M-11 69.4615H1740" stroke="#BE2D61" stroke-width="2"/>
<path d="M-11 83.0769H1740" stroke="#BE2D61" stroke-width="2"/>
<path d="M-11 96.6923H1740" stroke="#BE2D61" stroke-width="2"/>
<path d="M-11 110.308H1740" stroke="#BE2D61" stroke-width="2"/>
<path d="M-11 123.923H1740" stroke="#BE2D61" stroke-width="2"/>
<path d="M-11 137.538H1740" stroke="#BE2D61" stroke-width="2"/>
<path d="M-11 151.154H1740" stroke="#BE2D61" stroke-width="2"/>
<path d="M-11 164.769H1740" stroke="#BE2D61" stroke-width="2"/>
<path d="M-11 178.385H1740" stroke="#BE2D61" stroke-width="2"/>
<path d="M-11 192H1740" stroke="#BE2D61" stroke-width="2"/>
<path d="M-11 205.615H1740" stroke="#BE2D61" stroke-width="2"/>
<path d="M-11 219.231H1740" stroke="#BE2D61" stroke-width="2"/>
<path d="M-11 232.846H1740" stroke="#BE2D61" stroke-width="2"/>
<path d="M-11 246.462H1740" stroke="#BE2D61" stroke-width="2"/>
<path d="M-11 260.077H1740" stroke="#BE2D61" stroke-width="2"/>
<path d="M-11 273.692H1740" stroke="#BE2D61" stroke-width="2"/>
<path d="M-11 287.308H1740" stroke="#BE2D61" stroke-width="2"/>
<path d="M-11 300.923H1740" stroke="#BE2D61" stroke-width="2"/>
<path d="M-11 314.538H1740" stroke="#BE2D61" stroke-width="2"/>
<path d="M-11 328.154H1740" stroke="#BE2D61" stroke-width="2"/>
<path d="M-11 341.769H1740" stroke="#BE2D61" stroke-width="2"/>
<path d="M-11 355.385H1740" stroke="#BE2D61" stroke-width="2"/>
<path d="M-11 369H1740" stroke="#BE2D61" stroke-width="2"/>
<path d="M-11 384H1740" stroke="#BE2D61" stroke-width="2"/>
<path d="M-11 397.615H1740" stroke="#BE2D61" stroke-width="2"/>
<path d="M-11 411.231H1740" stroke="#BE2D61" stroke-width="2"/>
<path d="M-11 424.846H1740" stroke="#BE2D61" stroke-width="2"/>
<path d="M-11 438.462H1740" stroke="#BE2D61" stroke-width="2"/>
<path d="M-11 452.077H1740" stroke="#BE2D61" stroke-width="2"/>
<path d="M-11 465.692H1740" stroke="#BE2D61" stroke-width="2"/>
<path d="M-11 479.308H1740" stroke="#BE2D61" stroke-width="2"/>
<path d="M-11 492.923H1740" stroke="#BE2D61" stroke-width="2"/>
<path d="M-11 506.538H1740" stroke="#BE2D61" stroke-width="2"/>
<path d="M-11 520.154H1740" stroke="#BE2D61" stroke-width="2"/>
<path d="M-11 533.769H1740" stroke="#BE2D61" stroke-width="2"/>
<path d="M-11 547.385H1740" stroke="#BE2D61" stroke-width="2"/>
<path d="M-11 561H1740" stroke="#BE2D61" stroke-width="2"/>
<path d="M-11 574.615H1740" stroke="#BE2D61" stroke-width="2"/>
<path d="M-11 588.231H1740" stroke="#BE2D61" stroke-width="2"/>
<path d="M-11 601.846H1740" stroke="#BE2D61" stroke-width="2"/>
<path d="M-11 615.462H1740" stroke="#BE2D61" stroke-width="2"/>
<path d="M-11 629.077H1740" stroke="#BE2D61" stroke-width="2"/>
<path d="M-11 642.692H1740" stroke="#BE2D61" stroke-width="2"/>
<path d="M-11 656.308H1740" stroke="#BE2D61" stroke-width="2"/>
<path d="M-11 669.923H1740" stroke="#BE2D61" stroke-width="2"/>
<path d="M-11 683.538H1740" stroke="#BE2D61" stroke-width="2"/>
<path d="M-11 697.154H1740" stroke="#BE2D61" stroke-width="2"/>
<path d="M-11 710.769H1740" stroke="#BE2D61" stroke-width="2"/>
<path d="M-11 724.385H1740" stroke="#BE2D61" stroke-width="2"/>
<path d="M-11 738H1740" stroke="#BE2D61" stroke-width="2"/>
</svg>
