<svg width="1327" height="976" viewBox="0 0 1327 976" fill="none" xmlns="http://www.w3.org/2000/svg">
    <path d="M0 389H1327" stroke="#BE2D61" stroke-width="2" />
    <path d="M0 396.32H1327" stroke="#BE2D61" stroke-width="2" />
    <path d="M0 403.64H1327" stroke="#BE2D61" stroke-width="2" />
    <path d="M0 410.959H1327" stroke="#BE2D61" stroke-width="2" />
    <path d="M0 418.279H1327" stroke="#BE2D61" stroke-width="2" />
    <path d="M0 425.599H1327" stroke="#BE2D61" stroke-width="2" />
    <path d="M0 432.919H1327" stroke="#BE2D61" stroke-width="2" />
    <path d="M0 440.239H1327" stroke="#BE2D61" stroke-width="2" />
    <path d="M0 447.559H1327" stroke="#BE2D61" stroke-width="2" />
    <path d="M0 454.878H1327" stroke="#BE2D61" stroke-width="2" />
    <path d="M0 462.198H1327" stroke="#BE2D61" stroke-width="2" />
    <path d="M0 469.518H1327" stroke="#BE2D61" stroke-width="2" />
    <path d="M0 476.838H1327" stroke="#BE2D61" stroke-width="2" />
    <path d="M0 484.158H1327" stroke="#BE2D61" stroke-width="2" />
    <path d="M0 491.478H1327" stroke="#BE2D61" stroke-width="2" />
    <path d="M0 498.797H1327" stroke="#BE2D61" stroke-width="2" />
    <path d="M0 506.117H1327" stroke="#BE2D61" stroke-width="2" />
    <path d="M0 513.437H1327" stroke="#BE2D61" stroke-width="2" />
    <path d="M0 520.757H1327" stroke="#BE2D61" stroke-width="2" />
    <path d="M0 528.077H1327" stroke="#BE2D61" stroke-width="2" />
    <path d="M0 535.396H1327" stroke="#BE2D61" stroke-width="2" />
    <path d="M0 542.716H1327" stroke="#BE2D61" stroke-width="2" />
    <path d="M0 550.036H1327" stroke="#BE2D61" stroke-width="2" />
    <path d="M0 557.356H1327" stroke="#BE2D61" stroke-width="2" />
    <path d="M0 564.676H1327" stroke="#BE2D61" stroke-width="2" />
    <path d="M0 571.996H1327" stroke="#BE2D61" stroke-width="2" />
    <path d="M0 579.315H1327" stroke="#BE2D61" stroke-width="2" />
    <path d="M0 199H1327" stroke="#BE2D61" stroke-width="2" />
    <path d="M0 206.32H1327" stroke="#BE2D61" stroke-width="2" />
    <path d="M0 213.64H1327" stroke="#BE2D61" stroke-width="2" />
    <path d="M0 220.959H1327" stroke="#BE2D61" stroke-width="2" />
    <path d="M0 228.279H1327" stroke="#BE2D61" stroke-width="2" />
    <path d="M0 235.599H1327" stroke="#BE2D61" stroke-width="2" />
    <path d="M0 242.919H1327" stroke="#BE2D61" stroke-width="2" />
    <path d="M0 250.239H1327" stroke="#BE2D61" stroke-width="2" />
    <path d="M0 257.559H1327" stroke="#BE2D61" stroke-width="2" />
    <path d="M0 264.878H1327" stroke="#BE2D61" stroke-width="2" />
    <path d="M0 272.198H1327" stroke="#BE2D61" stroke-width="2" />
    <path d="M0 279.518H1327" stroke="#BE2D61" stroke-width="2" />
    <path d="M0 286.838H1327" stroke="#BE2D61" stroke-width="2" />
    <path d="M0 294.158H1327" stroke="#BE2D61" stroke-width="2" />
    <path d="M0 301.478H1327" stroke="#BE2D61" stroke-width="2" />
    <path d="M0 308.797H1327" stroke="#BE2D61" stroke-width="2" />
    <path d="M0 316.117H1327" stroke="#BE2D61" stroke-width="2" />
    <path d="M0 323.437H1327" stroke="#BE2D61" stroke-width="2" />
    <path d="M0 330.757H1327" stroke="#BE2D61" stroke-width="2" />
    <path d="M0 338.077H1327" stroke="#BE2D61" stroke-width="2" />
    <path d="M0 345.396H1327" stroke="#BE2D61" stroke-width="2" />
    <path d="M0 352.716H1327" stroke="#BE2D61" stroke-width="2" />
    <path d="M0 360.036H1327" stroke="#BE2D61" stroke-width="2" />
    <path d="M0 367.356H1327" stroke="#BE2D61" stroke-width="2" />
    <path d="M0 374.676H1327" stroke="#BE2D61" stroke-width="2" />
    <path d="M0 381.996H1327" stroke="#BE2D61" stroke-width="2" />
    <path d="M0 389.315H1327" stroke="#BE2D61" stroke-width="2" />
    <path d="M0 1H1327" stroke="#BE2D61" stroke-width="2" />
    <path d="M0 8.31982H1327" stroke="#BE2D61" stroke-width="2" />
    <path d="M0 15.6396H1327" stroke="#BE2D61" stroke-width="2" />
    <path d="M0 22.9595H1327" stroke="#BE2D61" stroke-width="2" />
    <path d="M0 30.2793H1327" stroke="#BE2D61" stroke-width="2" />
    <path d="M0 37.5991H1327" stroke="#BE2D61" stroke-width="2" />
    <path d="M0 44.9189H1327" stroke="#BE2D61" stroke-width="2" />
    <path d="M0 52.2388H1327" stroke="#BE2D61" stroke-width="2" />
    <path d="M0 59.5586H1327" stroke="#BE2D61" stroke-width="2" />
    <path d="M0 66.8784H1327" stroke="#BE2D61" stroke-width="2" />
    <path d="M0 74.1982H1327" stroke="#BE2D61" stroke-width="2" />
    <path d="M0 81.5181H1327" stroke="#BE2D61" stroke-width="2" />
    <path d="M0 88.8379H1327" stroke="#BE2D61" stroke-width="2" />
    <path d="M0 96.1577H1327" stroke="#BE2D61" stroke-width="2" />
    <path d="M0 103.478H1327" stroke="#BE2D61" stroke-width="2" />
    <path d="M0 110.797H1327" stroke="#BE2D61" stroke-width="2" />
    <path d="M0 118.117H1327" stroke="#BE2D61" stroke-width="2" />
    <path d="M0 125.437H1327" stroke="#BE2D61" stroke-width="2" />
    <path d="M0 132.757H1327" stroke="#BE2D61" stroke-width="2" />
    <path d="M0 140.077H1327" stroke="#BE2D61" stroke-width="2" />
    <path d="M0 147.396H1327" stroke="#BE2D61" stroke-width="2" />
    <path d="M0 154.716H1327" stroke="#BE2D61" stroke-width="2" />
    <path d="M0 162.036H1327" stroke="#BE2D61" stroke-width="2" />
    <path d="M0 169.356H1327" stroke="#BE2D61" stroke-width="2" />
    <path d="M0 176.676H1327" stroke="#BE2D61" stroke-width="2" />
    <path d="M0 183.996H1327" stroke="#BE2D61" stroke-width="2" />
    <path d="M0 191.315H1327" stroke="#BE2D61" stroke-width="2" />
    <path d="M0 586.842H1327" stroke="#BE2D61" stroke-width="2" />
    <path d="M0 594.162H1327" stroke="#BE2D61" stroke-width="2" />
    <path d="M0 601.482H1327" stroke="#BE2D61" stroke-width="2" />
    <path d="M0 608.802H1327" stroke="#BE2D61" stroke-width="2" />
    <path d="M0 616.122H1327" stroke="#BE2D61" stroke-width="2" />
    <path d="M0 623.441H1327" stroke="#BE2D61" stroke-width="2" />
    <path d="M0 630.761H1327" stroke="#BE2D61" stroke-width="2" />
    <path d="M0 638.081H1327" stroke="#BE2D61" stroke-width="2" />
    <path d="M0 645.401H1327" stroke="#BE2D61" stroke-width="2" />
    <path d="M0 652.721H1327" stroke="#BE2D61" stroke-width="2" />
    <path d="M0 660.041H1327" stroke="#BE2D61" stroke-width="2" />
    <path d="M0 667.36H1327" stroke="#BE2D61" stroke-width="2" />
    <path d="M0 674.68H1327" stroke="#BE2D61" stroke-width="2" />
    <path d="M0 682H1327" stroke="#BE2D61" stroke-width="2" />
    <path d="M0 689.32H1327" stroke="#BE2D61" stroke-width="2" />
    <path d="M0 696.64H1327" stroke="#BE2D61" stroke-width="2" />
    <path d="M0 703.959H1327" stroke="#BE2D61" stroke-width="2" />
    <path d="M0 711.279H1327" stroke="#BE2D61" stroke-width="2" />
    <path d="M0 718.599H1327" stroke="#BE2D61" stroke-width="2" />
    <path d="M0 725.919H1327" stroke="#BE2D61" stroke-width="2" />
    <path d="M0 733.239H1327" stroke="#BE2D61" stroke-width="2" />
    <path d="M0 740.559H1327" stroke="#BE2D61" stroke-width="2" />
    <path d="M0 747.878H1327" stroke="#BE2D61" stroke-width="2" />
    <path d="M0 755.198H1327" stroke="#BE2D61" stroke-width="2" />
    <path d="M0 762.518H1327" stroke="#BE2D61" stroke-width="2" />
    <path d="M0 769.838H1327" stroke="#BE2D61" stroke-width="2" />
    <path d="M0 777.158H1327" stroke="#BE2D61" stroke-width="2" />
    <path d="M0 784.685H1327" stroke="#BE2D61" stroke-width="2" />
    <path d="M0 792.004H1327" stroke="#BE2D61" stroke-width="2" />
    <path d="M0 799.324H1327" stroke="#BE2D61" stroke-width="2" />
    <path d="M0 806.644H1327" stroke="#BE2D61" stroke-width="2" />
    <path d="M0 813.964H1327" stroke="#BE2D61" stroke-width="2" />
    <path d="M0 821.284H1327" stroke="#BE2D61" stroke-width="2" />
    <path d="M0 828.604H1327" stroke="#BE2D61" stroke-width="2" />
    <path d="M0 835.923H1327" stroke="#BE2D61" stroke-width="2" />
    <path d="M0 843.243H1327" stroke="#BE2D61" stroke-width="2" />
    <path d="M0 850.563H1327" stroke="#BE2D61" stroke-width="2" />
    <path d="M0 857.883H1327" stroke="#BE2D61" stroke-width="2" />
    <path d="M0 865.203H1327" stroke="#BE2D61" stroke-width="2" />
    <path d="M0 872.522H1327" stroke="#BE2D61" stroke-width="2" />
    <path d="M0 879.842H1327" stroke="#BE2D61" stroke-width="2" />
    <path d="M0 887.162H1327" stroke="#BE2D61" stroke-width="2" />
    <path d="M0 894.482H1327" stroke="#BE2D61" stroke-width="2" />
    <path d="M0 901.802H1327" stroke="#BE2D61" stroke-width="2" />
    <path d="M0 909.122H1327" stroke="#BE2D61" stroke-width="2" />
    <path d="M0 916.441H1327" stroke="#BE2D61" stroke-width="2" />
    <path d="M0 923.761H1327" stroke="#BE2D61" stroke-width="2" />
    <path d="M0 931.081H1327" stroke="#BE2D61" stroke-width="2" />
    <path d="M0 938.401H1327" stroke="#BE2D61" stroke-width="2" />
    <path d="M0 945.721H1327" stroke="#BE2D61" stroke-width="2" />
    <path d="M0 953.041H1327" stroke="#BE2D61" stroke-width="2" />
    <path d="M0 960.36H1327" stroke="#BE2D61" stroke-width="2" />
    <path d="M0 967.68H1327" stroke="#BE2D61" stroke-width="2" />
    <path d="M0 975H1327" stroke="#BE2D61" stroke-width="2" />
</svg>