<svg width="57" height="73" viewBox="0 0 57 73" fill="none" xmlns="http://www.w3.org/2000/svg">
    <path
        d="M45.2979 42.735C36.5384 43.7808 31.5057 44.7429 28.416 47.9222C24.7848 51.6453 23.9248 58.4641 22.9693 72.1016C21.9818 57.9621 21.09 51.1852 17.1084 47.5457C14.0187 44.7011 9.01784 43.7808 0.640625 42.7768C9.36822 41.731 14.4328 40.7688 17.4906 37.6314C21.1537 33.8664 22.0137 27.0895 22.9693 13.4102C23.8611 26.0018 24.6574 32.7369 27.6197 36.6274C30.582 40.5178 35.7421 41.6055 45.2979 42.735Z"
        fill="#DDDDDE" />
    <path
        d="M56.0012 14.9231C51.8029 15.4243 49.3908 15.8855 47.91 17.4093C46.1696 19.1937 45.7574 22.4618 45.2994 28.9981C44.8262 22.2212 44.3987 18.9732 42.4904 17.2288C41.0096 15.8654 38.6127 15.4243 34.5977 14.9431C38.7807 14.4419 41.208 13.9808 42.6736 12.477C44.4292 10.6725 44.8414 7.42446 45.2994 0.868164C45.7269 6.90316 46.1086 10.1312 47.5283 11.9958C48.9481 13.8605 51.4213 14.3818 56.0012 14.9231Z"
        fill="#DDDDDE" />
</svg>