<svg width="724" height="705" viewBox="0 0 724 705" fill="none" xmlns="http://www.w3.org/2000/svg">
    <path fill-rule="evenodd" clip-rule="evenodd"
        d="M366.99 1.34037C370.565 2.09837 376.64 4.17336 380.49 5.95136C384.34 7.72936 388.661 9.68836 390.093 10.3054C391.524 10.9214 396.542 15.0684 401.244 19.5204C420.314 37.5744 427.726 62.1584 421.441 86.5064C416.713 104.824 401.78 122.887 384.99 130.596C381.965 131.985 377.465 134.041 374.99 135.164C371.378 136.803 367.727 137.301 356.49 137.689C344.037 138.119 341.661 137.926 334.99 135.937C325.361 133.067 321.155 130.895 312.225 124.186C301.981 116.488 294.677 107.027 289.635 94.9264C286.368 87.0854 284.992 80.3044 284.307 68.6734C283.494 54.8854 285.984 45.8734 294.99 30.0104C296.935 26.5834 314.62 9.92637 316.313 9.92637C317.026 9.92637 320.802 8.35436 324.703 6.43236C337.033 0.357362 353.188 -1.58763 366.99 1.34037ZM457.49 59.9264C461.019 61.5764 464.191 62.9264 464.539 62.9264C466.128 62.9264 499.285 80.1164 505.956 84.3974C510.062 87.0334 514.585 89.5234 516.008 89.9314C517.431 90.3394 522.319 93.5424 526.87 97.0504C531.421 100.557 536.496 104.174 538.147 105.088C539.798 106.003 541.358 106.961 541.615 107.217C541.871 107.474 540.711 110.008 539.035 112.849C537.36 115.69 535.99 118.232 535.99 118.499C535.99 118.766 532.952 123.554 529.24 129.14C525.528 134.726 520.81 142.476 518.757 146.361C516.704 150.247 514.432 153.876 513.708 154.426C512.984 154.976 510.63 158.351 508.477 161.926C506.325 165.501 501.172 172.926 497.027 178.426C492.882 183.926 488.309 190.226 486.865 192.426C485.421 194.626 481.934 198.815 479.115 201.735C476.296 204.655 473.99 207.602 473.99 208.284C473.99 210.362 451.921 230.633 444.99 234.923C437.249 239.714 426.225 244.999 419.99 246.908C417.515 247.666 415.04 248.593 414.49 248.968C412.91 250.046 398.024 253.055 387.169 254.492C385.342 254.734 382.979 255.396 381.919 255.964C379.432 257.295 379.477 256.912 382.607 250.112C384.047 246.985 385.8 242.851 386.504 240.926C387.208 239.001 388.502 236.076 389.38 234.426C390.259 232.776 390.98 230.858 390.984 230.165C390.989 229.13 397.337 212.901 403.009 199.426C403.703 197.776 404.912 194.851 405.695 192.926C406.479 191.001 407.932 187.851 408.926 185.926C409.919 184.001 411.046 181.099 411.43 179.478C411.814 177.856 414.764 171.049 417.987 164.351C421.21 157.653 424.364 150.205 424.996 147.8C425.628 145.394 427.181 141.176 428.447 138.426C432.398 129.843 437.959 115.332 438.65 111.803C439.014 109.946 439.893 107.524 440.605 106.421C441.317 105.318 442.569 101.718 443.389 98.4214C446.517 85.8354 448.294 79.3564 449.145 77.4264C449.63 76.3264 449.826 71.2644 449.58 66.1764C449.309 60.5624 449.515 56.9264 450.104 56.9264C450.637 56.9264 453.961 58.2764 457.49 59.9264ZM249.042 76.2324C250.842 79.6394 253.929 84.8944 255.902 87.9124C257.875 90.9294 260.84 95.9314 262.49 99.0274C264.14 102.124 267.178 107.202 269.24 110.311C271.303 113.421 272.99 116.234 272.99 116.563C272.99 116.893 274.341 118.7 275.992 120.581C277.643 122.461 280.171 126.322 281.609 129.161C283.048 132 285.921 136.596 287.995 139.374C290.068 142.153 292.743 146.374 293.938 148.754C296.243 153.346 304.001 165.078 306.946 168.426C307.914 169.526 309.992 172.835 311.563 175.78C313.135 178.725 316.043 183 318.025 185.28C320.007 187.56 323.381 192.289 325.521 195.789C327.662 199.288 329.908 202.341 330.512 202.573C331.117 202.805 334.205 206.053 337.375 209.79C340.544 213.527 345.892 218.574 349.258 221.005C352.624 223.437 357.599 227.558 360.314 230.163C365.756 235.386 365.565 234.136 362.957 247.426C362.525 249.626 361.655 254.336 361.024 257.892C360.393 261.448 359.397 264.935 358.811 265.642C358.207 266.37 355.608 266.926 352.809 266.926C346.552 266.926 333.834 264.997 332.398 263.83C331.797 263.343 331.092 263.157 330.83 263.419C329.935 264.314 316.495 260.998 312.49 258.894C310.29 257.739 305.743 255.361 302.386 253.61C299.029 251.859 294.979 249.42 293.386 248.191C291.793 246.962 286.215 242.913 280.99 239.194C271.034 232.108 240.371 202.254 233.958 193.404C232.051 190.771 228.641 186.774 226.381 184.522C224.122 182.269 221.214 178.851 219.919 176.926C216.977 172.55 202.172 154.156 201.017 153.443C200.547 153.152 199.152 150.78 197.915 148.17C196.679 145.561 193.792 141.176 191.499 138.426C189.207 135.676 186.243 131.176 184.913 128.426C183.583 125.676 181.035 121.353 179.251 118.819L176.007 114.211L181.749 109.229C184.906 106.489 188.615 103.655 189.99 102.931C191.365 102.207 195.64 99.0584 199.49 95.9344C203.34 92.8094 208.488 89.2414 210.93 88.0064C213.372 86.7704 217.872 83.8184 220.93 81.4454C223.988 79.0724 228.74 75.9854 231.49 74.5854C234.24 73.1844 237.84 70.9264 239.49 69.5664C242.158 67.3674 242.671 67.2564 244.13 68.5654C245.033 69.3754 247.243 72.8254 249.042 76.2324ZM606.671 172.676C608.427 175.471 613.216 181.395 617.382 185.926C618.646 187.301 621.663 190.882 624.085 193.883C626.508 196.884 629.789 200.463 631.376 201.836C632.963 203.209 634.86 205.763 635.59 207.512C636.321 209.26 639.86 213.895 643.454 217.812C647.049 221.729 649.99 225.301 649.99 225.75C649.99 226.199 651.552 228.39 653.46 230.62L656.93 234.674L647.21 241.29C641.864 244.929 636.365 248.801 634.99 249.894C633.615 250.987 631.794 251.892 630.944 251.904C630.094 251.916 626.114 253.951 622.099 256.426C618.085 258.901 614.506 260.927 614.145 260.929C613.785 260.93 610.797 262.555 607.505 264.54C604.213 266.525 597.688 270.182 593.005 272.667C588.322 275.152 583.59 277.963 582.49 278.913C581.39 279.863 579.14 281.306 577.49 282.119C572.258 284.7 567.75 287.448 557.99 294.005C552.765 297.516 545.765 301.771 542.435 303.462C539.105 305.152 535.347 307.569 534.084 308.832C532.821 310.095 529.921 311.97 527.639 312.999C525.357 314.029 522.14 315.78 520.49 316.892C518.84 318.003 516.85 318.916 516.069 318.919C515.287 318.923 513.917 319.587 513.025 320.395C510.837 322.374 493.051 328.807 484.99 330.534C476.757 332.297 470.825 332.302 466.626 330.547C462.715 328.913 458.985 324.506 459.003 321.541C459.041 315.174 468.675 292.675 475.894 282.093C479.892 276.234 501.303 254.992 506.351 251.878C509.078 250.195 523.22 237.375 530.565 229.926C545.772 214.504 555.332 205.425 558.99 202.93C560.915 201.618 565.112 198.146 568.317 195.216C571.522 192.286 576.472 188.333 579.317 186.43C582.162 184.528 585.615 182.104 586.99 181.042C594.128 175.533 602.539 169.926 603.667 169.926C604.369 169.926 605.721 171.164 606.671 172.676ZM118.055 180.504C118.775 181.372 121.596 183.213 124.323 184.595C127.051 185.977 132.704 189.703 136.886 192.875C141.068 196.046 145.523 199.182 146.785 199.843C148.047 200.504 153.62 204.505 159.17 208.735C164.719 212.965 169.979 216.876 170.858 217.426C177.714 221.714 182.361 225.071 187.753 229.631C191.198 232.543 194.707 234.926 195.551 234.926C196.395 234.926 198.077 235.973 199.288 237.253C200.499 238.532 205.09 242.344 209.49 245.722C219.04 253.056 240.737 271.758 246.432 277.564C254.821 286.119 261.228 293.533 262.736 296.43C263.594 298.078 265.339 300.802 266.615 302.485C267.892 304.167 270.019 308.442 271.343 311.985C273.385 317.445 273.676 319.644 273.256 326.426C272.83 333.306 272.391 334.824 270.125 337.265C265.47 342.282 262.973 343.073 256.843 341.475C253.899 340.708 248.565 338.695 244.99 337.004C241.415 335.312 237.815 333.926 236.99 333.925C236.165 333.923 229.687 330.997 222.595 327.424C215.502 323.85 209.293 320.926 208.796 320.926C206.901 320.926 190.752 312.171 183.705 307.324C180.988 305.455 178.123 303.926 177.338 303.926C175.678 303.926 167.737 300.039 166.967 298.85C166.679 298.405 163.224 296.451 159.29 294.506C155.355 292.562 151.873 290.546 151.552 290.027C151.232 289.508 148.836 288.32 146.23 287.386C143.623 286.453 136.54 283.263 130.49 280.298C115.833 273.114 101.354 267.214 92.6272 264.868C88.7022 263.813 83.0152 262.218 79.9902 261.325C76.9652 260.432 70.9882 258.894 66.7082 257.909C62.4282 256.924 58.2782 255.58 57.4852 254.921C55.3872 253.181 56.8932 250.424 68.1812 235.334C70.2762 232.533 71.9902 229.949 71.9902 229.592C71.9902 228.568 78.8662 219.822 83.1202 215.436C85.2492 213.242 86.9902 210.753 86.9902 209.905C86.9902 209.057 89.7242 205.677 93.0652 202.395C96.4072 199.112 100.252 194.552 101.61 192.262C103.856 188.474 114.146 178.926 115.982 178.926C116.402 178.926 117.334 179.636 118.055 180.504ZM671.166 281.409C678.884 283.375 682.527 284.978 689.166 289.328C698.858 295.679 707.188 303.898 712.738 312.585C717.062 319.354 717.848 321.158 720.91 331.344C724.015 341.671 723.873 359.979 720.615 369.559C718.172 376.743 715.933 381.557 713.005 385.926C712.083 387.301 710.24 390.06 708.909 392.057C706.36 395.882 691.329 408.926 689.47 408.926C688.872 408.926 686.157 410.004 683.436 411.322C671.842 416.939 665.967 418.126 651.727 417.727C640.644 417.416 637.726 416.995 633.795 415.141C631.213 413.923 628.509 412.926 627.787 412.926C627.065 412.926 624.228 411.744 621.482 410.3C612.101 405.366 600.77 395.097 596.793 387.926C586.741 369.799 586.515 368.964 586.502 349.926C586.491 335.19 586.741 332.699 588.838 326.626C592.38 316.368 599.893 303.634 605.019 299.199C613.216 292.106 621.598 285.926 623.052 285.904C623.843 285.892 626.515 284.951 628.99 283.814C640.626 278.466 656.14 277.581 671.166 281.409ZM88.9902 289.954C95.9472 292.361 102.938 295.787 106.99 298.774C108.365 299.788 111.318 301.815 113.553 303.278C115.788 304.741 118.938 307.786 120.553 310.045C122.168 312.303 124.892 315.787 126.606 317.788C133.621 325.979 138.99 342.738 138.985 356.426C138.981 369.62 132.914 389.424 127.501 393.917C126.59 394.673 125.018 396.897 124.008 398.859C121.695 403.355 118.319 406.432 109.49 412.088C100.536 417.825 92.1292 421.45 84.2362 422.978C77.0242 424.373 57.4792 423.815 55.8312 422.167C55.2342 421.57 54.1692 421.304 53.4642 421.574C51.6062 422.287 39.5792 417.277 31.7352 412.521C23.6732 407.633 12.2282 395.074 8.41215 386.926C6.99615 383.901 5.17616 380.059 4.37016 378.388C0.152161 369.651 -1.44284 346.221 1.51616 336.466C5.00916 324.951 8.36715 318.265 13.7482 312.113C21.7722 302.939 24.7792 300.095 28.8562 297.824C30.8542 296.711 34.3912 294.727 36.7142 293.416C39.0372 292.105 43.7622 290.357 47.2142 289.531C50.6662 288.704 54.3902 287.805 55.4902 287.532C56.5902 287.258 63.1152 287.185 69.9902 287.369C79.7242 287.63 83.9292 288.202 88.9902 289.954ZM469.99 358.919C473.015 360.501 477.965 363.026 480.99 364.529C484.015 366.032 488.091 368.263 490.048 369.485C496.599 373.579 512.458 381.618 515.394 382.334C516.99 382.723 520.14 384.303 522.394 385.846C524.647 387.389 530.836 391.155 536.149 394.216C541.461 397.276 548.661 401.576 552.149 403.772C555.636 405.967 560.515 408.554 562.99 409.52C565.465 410.486 570.053 412.997 573.185 415.101C576.317 417.205 579.364 418.926 579.955 418.926C580.546 418.926 582.883 420.096 585.147 421.525C587.412 422.955 592.016 425.024 595.378 426.123C598.739 427.222 602.004 428.542 602.632 429.057C604.225 430.361 618.817 435.629 628.99 438.573C637.505 441.037 641.147 441.77 656.99 444.208L665.49 445.516L665.763 449.471C665.992 452.802 665.402 454.215 662.023 458.426C659.817 461.176 655.995 466.351 653.531 469.926C648.21 477.646 639.409 489.041 638.142 489.851C637.648 490.167 636.066 492.169 634.627 494.3C633.188 496.431 629.13 501.381 625.608 505.3C622.086 509.219 616.749 515.351 613.748 518.926C610.403 522.91 607.652 525.312 606.641 525.132C605.735 524.971 600.379 521.631 594.741 517.711C589.103 513.791 581.79 508.781 578.49 506.578C575.19 504.375 570.465 500.902 567.99 498.86C565.515 496.818 562.465 494.838 561.213 494.461C559.961 494.083 556.811 491.989 554.213 489.807C551.615 487.624 548.397 484.921 547.061 483.799C545.725 482.677 542.125 480.159 539.061 478.204C535.997 476.249 530.416 472.002 526.658 468.766C522.901 465.531 518.176 462.03 516.158 460.987C514.141 459.944 510.465 457.002 507.99 454.448C505.515 451.894 501.915 448.857 499.99 447.7C498.065 446.542 492.985 442.182 488.701 438.01C484.417 433.839 479.747 429.301 478.325 427.926C476.902 426.551 472.643 421.601 468.861 416.926C463.409 410.186 461.332 406.605 458.834 399.629C457.101 394.791 454.904 390.415 453.951 389.905C451.365 388.521 450.616 384.084 452.363 380.501C453.613 377.937 456.139 370.024 459.489 358.176C460.344 355.152 463.17 355.352 469.99 358.919ZM270.433 366.834C270.742 367.334 269.478 371.721 267.624 376.584C265.77 381.447 263.921 386.945 263.514 388.801C262.656 392.726 254.829 409.435 249.308 419.13C245.248 426.259 231.166 442.237 226.99 444.452C225.615 445.181 222.015 448.199 218.99 451.158C215.965 454.117 211.455 457.927 208.967 459.624C206.48 461.321 202.571 464.742 200.282 467.225C197.993 469.709 194.149 473.097 191.741 474.754C189.332 476.411 185.703 479.791 183.676 482.265C181.648 484.739 178.302 487.781 176.24 489.026C174.177 490.27 169.913 493.893 166.764 497.077C163.614 500.261 159.114 504.091 156.764 505.589C154.413 507.086 152.019 508.861 151.443 509.533C149.992 511.224 134.136 522.926 133.295 522.926C132.918 522.926 129.524 524.791 125.753 527.069C117.74 531.911 116.753 531.719 110.127 524.038C107.939 521.501 102.851 515.674 98.8192 511.087C94.7882 506.501 90.9442 501.749 90.2762 500.527C89.6092 499.305 86.3012 495.182 82.9262 491.365C79.5512 487.549 75.9672 482.82 74.9622 480.857C73.9562 478.893 71.5262 475.363 69.5622 473.012C67.5972 470.661 65.9902 468.126 65.9902 467.379C65.9902 465.642 72.6472 461.07 83.1902 455.565C87.7552 453.182 95.3152 449.191 99.9902 446.696C104.665 444.202 110.29 441.602 112.49 440.918C114.69 440.234 120.152 437.481 124.629 434.8C129.105 432.119 133.198 429.926 133.724 429.926C134.25 429.926 135.432 429.095 136.351 428.079C137.27 427.064 139.702 425.727 141.756 425.108C143.81 424.49 147.797 422.246 150.617 420.123C153.436 417.999 157.744 415.322 160.188 414.173C162.633 413.024 169.776 408.606 176.061 404.357C182.347 400.107 189.856 395.576 192.747 394.287C195.639 392.999 199.689 390.879 201.747 389.576C209.929 384.397 215.825 381.414 222.99 378.825C227.115 377.334 233.865 374.873 237.99 373.356C254.535 367.272 268.917 364.381 270.433 366.834ZM400.452 439.821C411.453 445.691 425.527 454.401 426.779 456.113C427.488 457.083 430.863 459.512 434.279 461.512C437.695 463.512 442.55 467.293 445.067 469.915C447.584 472.537 451.521 475.868 453.817 477.317C456.112 478.766 457.993 480.283 457.996 480.689C458.006 481.883 467.247 491.355 470.243 493.242C471.758 494.196 474.067 496.672 475.375 498.744C476.683 500.816 480.957 505.702 484.872 509.602C488.787 513.501 491.99 517.156 491.99 517.724C491.99 518.292 495.365 522.433 499.49 526.926C503.615 531.419 506.99 535.767 506.99 536.587C506.99 537.408 508.452 539.508 510.24 541.253C513.843 544.77 514.013 544.998 522.432 557.56C525.7 562.436 530.2 568.893 532.432 571.908C536.665 577.626 541.99 587.485 541.99 589.604C541.99 592.285 511.062 615.797 500.131 621.426C496.927 623.076 491.647 626.225 488.398 628.424C475.747 636.986 474.355 637.043 470.243 629.176C468.59 626.013 465.238 619.601 462.795 614.926C456.222 602.348 451.965 594.983 448.267 589.789C446.451 587.239 444.461 583.639 443.845 581.789C442.82 578.711 440.265 574.5 429.976 558.926C427.977 555.901 425.327 551.401 424.087 548.926C422.847 546.451 420.599 542.851 419.092 540.926C417.586 539.001 415.484 535.861 414.421 533.949C411.765 529.168 400.369 513.192 396.571 508.926C394.858 507.001 392.365 503.626 391.032 501.426C389.699 499.226 386.664 495.234 384.288 492.555C381.912 489.877 379.677 486.502 379.321 485.055C378.965 483.609 376.72 480.127 374.332 477.318C369.355 471.463 369.153 469.96 371.66 457.426C372.54 453.026 373.362 447.726 373.486 445.648C373.61 443.571 373.99 441.593 374.33 441.253C375.002 440.581 390.384 437.127 393.259 437.002C394.232 436.96 397.469 438.229 400.452 439.821ZM336.565 449.176C335.848 451.513 334.753 455.451 334.131 457.926C333.509 460.401 332.095 465.576 330.987 469.426C329.88 473.276 328.102 479.801 327.036 483.926C324.489 493.782 322.668 498.722 317.922 508.656C315.759 513.182 313.99 517.732 313.99 518.766C313.99 519.801 312.809 522.388 311.365 524.515C309.921 526.643 308.171 529.995 307.476 531.965C306.781 533.935 304.81 538.174 303.097 541.386C301.383 544.597 299.445 549.07 298.791 551.325C298.136 553.581 296.635 557.001 295.455 558.926C294.275 560.851 293.021 563.598 292.667 565.03C292.314 566.463 289.092 573.807 285.507 581.351C281.923 588.895 278.99 596.048 278.989 597.247C278.989 598.445 277.642 602.273 275.995 605.753C270.456 617.463 266.856 636.16 268.791 643.168C269.413 645.42 269.458 647.137 268.904 647.479C268.398 647.792 265.848 646.945 263.237 645.598C255.636 641.676 247.941 638.222 241.49 635.837C235.907 633.773 213.917 621.998 207.78 617.786C206.29 616.763 204.791 615.926 204.449 615.926C204.107 615.926 201.951 614.402 199.658 612.54C195.392 609.073 188.321 604.958 186.505 604.885C185.947 604.862 183.518 603.061 181.107 600.881L176.724 596.918L179.185 593.172C183.788 586.169 188.99 577.128 188.99 576.132C188.99 575.587 189.616 574.9 190.38 574.607C191.145 574.313 192.423 572.803 193.222 571.25C194.02 569.697 195.722 566.401 197.004 563.926C199.573 558.965 207.959 546.843 211.531 542.926C212.785 541.551 214.751 538.626 215.9 536.426C217.048 534.226 220.39 529.609 223.326 526.165C226.262 522.722 229.294 518.672 230.066 517.165C230.837 515.659 234.563 511.051 238.346 506.926C242.13 502.801 245.825 498.076 246.558 496.426C247.292 494.776 249.128 492.526 250.64 491.426C252.151 490.326 256.391 486.363 260.061 482.618C263.732 478.874 268.416 474.91 270.471 473.808C272.526 472.707 275.396 470.668 276.848 469.277C280.643 465.643 286.169 462.039 288.491 461.683C289.591 461.515 293.19 459.753 296.49 457.768C299.79 455.784 303.615 453.832 304.99 453.432C306.365 453.031 308.84 452.116 310.49 451.399C315.424 449.253 329.344 445.884 336.679 445.06C337.578 444.959 337.55 445.966 336.565 449.176ZM385.048 566.444C386.294 566.84 391.519 569.128 396.659 571.53C408.511 577.068 419.68 587.371 426.274 598.849C431.558 608.046 432.411 610.25 434.541 620.212C437.87 635.776 434.301 658.676 426.842 669.606C425.274 671.905 423.99 674.268 423.99 674.856C423.99 675.445 423.616 675.926 423.159 675.926C422.702 675.926 421.689 677.121 420.909 678.581C418.449 683.184 403.753 694.297 394.072 698.873C385.078 703.125 361.117 706.583 358.44 704.015C357.917 703.513 355.24 702.865 352.49 702.574C349.74 702.283 346.14 701.631 344.49 701.125C339.763 699.677 327.516 693.264 326.009 691.448C325.257 690.543 322.306 688.251 319.45 686.356C316.01 684.072 312.845 680.726 310.072 676.437C307.77 672.878 305.324 669.394 304.637 668.696C303.356 667.395 300.368 661.159 298.038 654.926C294.869 646.444 294.838 622.816 297.989 616.928C298.539 615.899 298.992 614.24 298.995 613.242C299.003 610.628 311.613 589.708 314.254 587.926C315.478 587.101 319.404 583.614 322.98 580.176C326.556 576.739 329.819 573.926 330.231 573.926C330.644 573.926 334.254 572.415 338.253 570.567C348.313 565.92 348.816 565.801 361.353 565.071C372.061 564.448 380.252 564.922 385.048 566.444Z"
        fill="white" />
</svg>