<svg width="109" height="27" viewBox="0 0 109 27" fill="none" xmlns="http://www.w3.org/2000/svg">
    <path
        d="M11.2156 26.3248C9.98004 26.3248 8.94828 26.2293 8.12033 26.0382C6.97393 25.7962 6.13324 25.4204 5.59825 24.9109C4.4009 22.3761 3.37551 19.5993 2.52208 16.5804C1.33747 12.4024 0.509511 8.09069 0.0382133 3.64521C0.611413 2.80452 1.39479 2.15489 2.38833 1.69633C3.38188 1.22503 4.49006 0.989384 5.71289 0.989384C7.54713 0.989384 8.9865 1.33967 10.031 2.04025C11.0882 2.74083 11.6168 3.74074 11.6168 5.04C11.5277 6.00807 11.4449 7.42833 11.3685 9.30078C11.3048 11.1732 11.2729 12.8674 11.2729 14.3832C11.2729 14.8035 11.3111 15.1347 11.3876 15.3767C11.4767 15.606 11.6551 15.7206 11.9226 15.7206C12.0245 15.7206 12.1518 15.7015 12.3047 15.6633C12.292 15.5487 12.2856 15.3576 12.2856 15.0901V14.4214C12.2856 12.5744 12.3493 10.4472 12.4766 8.03974C12.604 5.61956 12.7569 3.81717 12.9352 2.63256C14.0943 1.91924 15.4573 1.56258 17.024 1.56258C18.5908 1.56258 19.8518 1.77913 20.8072 2.21221C21.9536 2.7472 22.5586 3.53057 22.6223 4.56233C22.5586 5.81063 22.4376 7.03983 22.2593 8.24991C22.0937 9.46 21.8899 10.8548 21.6478 12.4343C21.4058 14.0138 21.253 15.0583 21.1893 15.5678C21.2912 15.6187 21.4249 15.6442 21.5905 15.6442C21.7561 15.6442 21.909 15.5805 22.0491 15.4531C22.1892 15.3257 22.3038 15.02 22.393 14.536C22.7879 12.498 23.1127 10.3516 23.3674 8.09706C23.6222 5.82974 23.7878 3.85538 23.8642 2.174C25.0361 1.38426 26.6538 0.989384 28.7173 0.989384C30.386 0.989384 31.7171 1.43521 32.7106 2.32685C33.7041 3.20576 34.2009 4.39037 34.2009 5.88069C34.2009 6.87424 33.7296 9.47911 32.787 13.6953C32.303 15.9117 31.8381 17.8096 31.3922 19.3891C30.9464 20.9558 30.5834 22.0577 30.3032 22.6945C29.7172 23.9811 28.8383 24.9109 27.6664 25.4841C26.5073 26.0446 25.0234 26.3248 23.2146 26.3248C22.4885 26.3248 21.6478 26.2165 20.6925 26C19.7499 25.7835 19.0302 25.5414 18.5335 25.2739C18.2787 24.8791 17.9921 24.2804 17.6737 23.4779C17.3552 22.6754 17.1578 22.0704 17.0814 21.6628C16.5846 21.6755 16.3362 21.943 16.3362 22.4653C16.3362 22.8729 16.5336 23.6244 16.9285 24.7199C15.591 25.7898 13.6867 26.3248 11.2156 26.3248ZM47.5183 12.8164C47.5183 11.5426 47.4609 10.6701 47.3463 10.1988C47.2317 9.71476 47.0215 9.47274 46.7158 9.47274C46.5247 9.47274 46.3528 9.53643 46.1999 9.66381C46.2254 9.89309 46.2636 10.1988 46.3145 10.5809C46.3655 10.9631 46.391 11.7783 46.391 13.0266V14.2685C46.391 15.1347 46.3719 15.7652 46.3336 16.1601C46.2954 16.5549 46.2636 16.8925 46.2381 17.1727C46.2254 17.3256 46.2126 17.4784 46.1999 17.6313C46.3528 17.7587 46.5247 17.8224 46.7158 17.8224C47.0215 17.8224 47.2317 17.5867 47.3463 17.1154C47.4609 16.6314 47.5183 15.7525 47.5183 14.4787V12.8164ZM46.754 26.6114C44.4867 26.6114 42.404 26.1465 40.5061 25.2166C38.6209 24.274 37.0988 22.841 35.9396 20.9176C34.7805 18.9815 34.2009 16.5677 34.2009 13.6762C34.2009 9.48548 35.462 6.21187 37.984 3.85538C40.2259 1.77913 43.111 0.740998 46.6394 0.740998C50.4734 0.740998 53.505 1.93198 55.7341 4.31394C57.976 6.68317 59.0969 9.80392 59.0969 13.6762C59.0969 17.9816 57.8995 21.2679 55.5048 23.5352C53.3267 25.586 50.4097 26.6114 46.754 26.6114ZM73.274 12.8164C73.274 11.5426 73.2167 10.6701 73.1021 10.1988C72.9874 9.71476 72.7773 9.47274 72.4716 9.47274C72.2805 9.47274 72.1085 9.53643 71.9557 9.66381C71.9811 9.89309 72.0194 10.1988 72.0703 10.5809C72.1213 10.9631 72.1467 11.7783 72.1467 13.0266V14.2685C72.1467 15.1347 72.1276 15.7652 72.0894 16.1601C72.0512 16.5549 72.0194 16.8925 71.9939 17.1727C71.9811 17.3256 71.9684 17.4784 71.9557 17.6313C72.1085 17.7587 72.2805 17.8224 72.4716 17.8224C72.7773 17.8224 72.9874 17.5867 73.1021 17.1154C73.2167 16.6314 73.274 15.7525 73.274 14.4787V12.8164ZM72.5098 26.6114C70.2424 26.6114 68.1598 26.1465 66.2619 25.2166C64.3767 24.274 62.8545 22.841 61.6954 20.9176C60.5363 18.9815 59.9567 16.5677 59.9567 13.6762C59.9567 9.48548 61.2177 6.21187 63.7398 3.85538C65.9817 1.77913 68.8668 0.740998 72.3951 0.740998C76.2292 0.740998 79.2608 1.93198 81.4899 4.31394C83.7317 6.68317 84.8527 9.80392 84.8527 13.6762C84.8527 17.9816 83.6553 21.2679 81.2606 23.5352C79.0825 25.586 76.1655 26.6114 72.5098 26.6114ZM96.5842 13.1794C96.6351 13.2176 96.7816 13.2368 97.0236 13.2368C97.2656 13.2368 97.4503 13.1412 97.5777 12.9502C97.7051 12.7591 97.7688 12.447 97.7688 12.0139V10.5618C97.7688 10.1033 97.7114 9.77845 97.5968 9.58738C97.4949 9.38358 97.3166 9.28167 97.0618 9.28167C96.8198 9.28167 96.6542 9.30715 96.5651 9.3581C96.5778 9.42179 96.5842 9.53006 96.5842 9.68291V13.1794ZM97.0618 21.8156V24.739C96.5014 25.2103 95.7116 25.5988 94.6926 25.9045C93.6736 26.1974 92.61 26.3439 91.5018 26.3439C89.9223 26.3439 88.6294 26.0382 87.6231 25.4268C86.4767 24.7262 85.9035 23.7136 85.9035 22.3888V4.23752C85.9035 3.82991 86.1774 3.4223 86.7251 3.01469C87.2856 2.60708 88.0562 2.23769 89.037 1.9065C91.1388 1.19319 93.5398 0.836531 96.2402 0.836531C99.9724 0.836531 102.947 1.76639 105.163 3.6261C107.379 5.48582 108.488 7.98879 108.488 11.135C108.488 14.2685 107.488 16.7078 105.488 18.4529C103.564 20.1088 100.896 20.9367 97.4822 20.9367C96.7052 20.9367 95.8708 20.8476 94.9792 20.6692C94.1003 20.4782 93.508 20.3126 93.2023 20.1725C93.1004 20.2744 93.0494 20.4145 93.0494 20.5928C93.0494 21.2424 94.3869 21.6501 97.0618 21.8156Z"
        fill="white" />
</svg>